<svg width="326" height="274" viewBox="0 0 326 274" fill="none" xmlns="http://www.w3.org/2000/svg">
<path d="M100.837 189.943C101.329 196.673 100.928 194.196 102.48 200.781C101.198 199.88 100.991 198.688 100.764 198.688C101.018 199.749 101.589 201.638 101.438 202.682C98.3132 200.48 98.5743 191.16 100.837 189.943ZM63.7504 183.193C63.8783 183.321 63.8773 183.32 63.7504 183.193V183.193ZM88.9693 182.781C89.0307 182.899 88.9905 182.823 88.9693 182.781V182.781ZM73.7111 175.207C73.5862 175.461 73.5851 175.462 73.7111 175.207V175.207ZM79.1189 171.119C78.4903 172.004 78.4861 172.009 79.1189 171.119V171.119ZM95.4619 168.457C91.0021 185.85 89.1611 188.341 88.5094 195.361C87.683 204.275 90.9542 213.791 95.9594 219.794C97.6754 221.851 99.6773 224.332 101.875 225.878C95.0697 213.979 100.977 204.856 101.251 203.917C101.57 203.917 102.581 207.758 106.623 213.233C111.385 219.694 108.591 215.273 106.917 210.857C103.051 200.674 102.719 195.516 103.406 189.277C103.475 188.651 103.449 187.705 104.062 187.376C104.175 186.578 104.092 186.71 104.346 186.71C105.084 188.284 109.743 195.214 112.926 197.453C112.503 196.128 107.357 188.867 104.697 174.731L102.987 175.397C103.142 177.228 104.18 179.071 105.092 180.626L103.854 179.96L105.289 183.668C104.156 183.284 103.537 181.863 103.289 181.863C103.564 183.952 104.106 185.085 103.636 185.251C102.894 185.515 99.9286 180.718 101.181 175.397L98.2313 173.782C97.4993 177.718 97.7721 181.43 97.7838 185.38C96.934 184.689 96.7538 182.622 96.7291 181.577L96.6342 181.577C96.3206 189.22 96.2502 187.207 96.8466 190.799C96.6071 190.799 95.2017 187.2 95.1179 183.574C94.9808 183.574 95.0734 182.623 94.5723 192.13L95.6282 197.738C93.7005 196.228 93.3777 189.753 93.0423 189.753C92.5384 193.799 93.3316 198.536 94.6269 202.397C94.985 203.46 95.6919 204.394 96.0268 205.439C92.399 201.51 92.258 197.358 91.9205 197.358C92.7185 201.907 92.1358 199.564 94.648 208.006L95.9457 211.143C93.5638 209.392 92.5188 205.249 92.2245 205.249C92.9545 210.885 95.4063 215.313 95.7691 216.562C93.8211 214.978 92.6802 211.713 91.8149 209.432C85.4776 192.733 97.0746 175.751 96.91 172.261C96.8888 171.796 96.4953 171.345 96.3097 170.929C95.9586 170.142 95.8625 169.203 95.4619 168.457ZM76.4711 176.253C76.1174 174.851 77.9639 172.893 78.6459 171.785C76.7959 173.64 74.9429 175.546 73.4091 177.678C73.0264 178.208 72.4131 179.781 71.7264 179.77L73.6166 175.397C68.5983 181.329 69.9464 179.602 67.4572 183.193C67.3174 181.647 68.659 179.835 69.3478 178.534C63.0974 184.934 64.0472 186.365 62.6189 186.805C62.7171 185.555 63.285 184.429 63.7506 183.288C58.7617 188.717 59.2093 188.875 58.3471 189.181C58.3949 186.697 60.8458 183.851 62.2621 181.956C69.8115 171.856 77.2639 167.416 86.234 165.046C86.7253 164.916 87.919 164.35 88.3871 164.658C89.226 165.212 86.9703 165.916 85.5739 167.317C83.564 169.331 81.1681 170.931 79.228 173.02C78.4084 173.902 77.531 175.746 76.4711 176.253ZM96.5925 164.465C96.6374 168.605 99.6718 174.05 103.361 172.545L103.361 172.449C102.321 172.449 100.566 172.258 100.031 171.214L101.266 171.119C99.1195 169.888 99.5867 170.273 99.0795 169.512C103.291 170.156 98.9805 169.585 97.834 167.031C101.958 169.009 100.182 168.606 96.5925 164.465ZM113.322 164.465C113.355 165.914 113.918 168.859 112.289 169.694C112.502 167.971 112.068 166.462 111.517 164.845C111.095 164.845 111.825 167.643 107.822 169.789C109.676 172.414 113.762 173.841 114.765 172.07C114.217 172.188 113.728 172.503 113.151 172.52C112.006 172.556 110.491 171.672 110.01 170.644C110.888 170.795 111.99 171.382 112.86 170.847C114.273 169.98 113.618 167.499 113.524 166.176C113.485 165.619 113.65 164.944 113.322 164.465ZM49.3478 201.637C51.1817 200.118 54.5404 192.317 67.5594 186.169C68.0726 185.928 68.7001 185.473 69.1749 185.951C69.8702 185.985 69.047 187.981 68.9512 188.518C68.4705 191.217 67.9248 194.575 68.7278 197.264C69.019 197.264 70.03 185.781 81.7958 177.435C82.0696 177.241 82.821 176.545 83.1803 176.808C83.4445 177 83.1817 177.366 83.1095 177.585C82.589 179.15 83.9304 186.784 84.0068 187.377C84.088 187.377 90.1955 174.756 94.0165 168.363C94.3716 167.768 94.5928 167.214 95.3644 167.413L95.5478 164.751C91.2608 164.751 91.3684 161.714 90.2157 161.847C86.4963 162.281 79.1206 166.168 76.1654 168.142C57.8605 180.365 50.0743 198.463 49.3478 201.636M101.909 161.899C102.812 161.75 104.43 163.045 105.145 163.575C105.359 163.733 106.082 164.153 105.89 164.504C105.621 164.998 102.878 164.723 101.909 161.899ZM105.237 162.279C104.466 162.179 103.118 161.609 103.332 160.664C104.146 160.898 104.876 161.509 105.237 162.279ZM124.335 159.522L125.579 162.565L123.1 159.713C124.758 164.147 124.916 163.865 122.627 160.567C122.494 160.567 122.447 160.216 123.108 162.944L122.155 161.899L121.872 163.134C124.409 163.452 124.155 163.377 124.155 163.515C122.953 163.953 123.111 163.857 123.111 163.99C125.617 164.426 125.297 164.332 125.298 164.466C122.432 164.987 122.354 164.789 125.871 165.416C125.371 166.279 123.685 165.702 123.685 165.987C124.661 166.209 125.989 166.679 126.896 165.998C128.131 165.067 126.476 161.37 124.335 159.522ZM93.0579 157.241C92.4476 159.133 92.5873 162.8 95.6358 161.899C95.1679 157.777 95.4173 157.944 94.6793 159.427C94.2996 159.427 94.4101 159.767 94.2945 157.336L93.1554 158.286L93.0579 157.241ZM63.7816 157.051C63.9095 157.178 63.9085 157.178 63.7816 157.051V157.051ZM116.059 156.765C116.06 157.013 118.158 158.118 118.157 159.522C116.508 157.91 114.462 157.054 112.163 156.955C112.164 157.232 113.596 157.371 115.114 158.761C110.712 157.881 111.125 157.914 113.593 158.952C113.594 159.333 113.994 159.298 111.121 158.857L114.265 161.328L111.981 160.664C113.267 162.213 116.513 163.373 118.45 162.651C120.903 161.736 119.171 158.219 116.059 156.765ZM67.2965 156.194C67.4244 156.322 67.4234 156.321 67.2965 156.194V156.194ZM94.7659 156.004C94.6531 156.461 94.6403 156.385 94.7668 156.385L94.7659 156.004ZM101.92 166.177C100.871 164.649 98.7366 162.535 99.0543 160.473C100.599 162.278 102.092 164.285 104.389 165.182C107.033 166.213 107.729 163.804 106.48 161.519C105.898 160.452 105.013 159.594 104.373 158.571C105.258 158.45 106.11 159.21 106.847 159.617C105.491 156.433 99.8229 155.09 98.8158 156.075C98.5737 156.311 98.5128 156.84 98.3511 157.146C96.6521 160.355 98.9977 164.514 101.92 166.177ZM36.9699 154.008C37.0978 154.136 37.0968 154.135 36.9699 154.008V154.008ZM40.4845 153.058C40.6125 153.184 40.6114 153.184 40.4845 153.058V153.058ZM83.3543 153.818L83.3547 154.008C82.6927 154.176 81.9421 153.931 81.2637 153.914C72.7863 153.709 71.4717 156.232 69.5798 156.86L70.7166 155.435C68.9072 156.177 67.3981 157.216 65.7815 158.286C65.8112 157.504 66.7768 156.81 67.2967 156.29C62.9687 158.957 64.1578 158.177 61.8874 159.808C62.4416 157.36 67.2647 155.3 58.941 159.712C59.7364 157.997 62.3883 156.68 63.9684 155.774C72.0343 151.153 80.7348 152.439 83.3543 153.818ZM247.122 151.631C247.25 151.759 247.249 151.758 247.122 151.631V151.631ZM113.48 151.441C113.48 151.568 113.405 151.536 113.861 151.536L113.48 151.441ZM95.9949 153.437C96.2428 153.437 96.5913 151.862 97.5121 151.821C97.3286 155.279 97.3212 152.685 98.748 151.631L98.5642 154.579C99.3692 154.213 99.0348 153.312 99.5754 152.685C100.12 152.052 100.197 152.923 100.09 153.343C100.032 153.567 99.9536 153.785 99.8941 154.008C100.161 153.987 100.761 154.008 100.927 153.761C101.44 153.001 99.2817 148.602 97.1887 150.712C96.5973 151.306 96.0798 152.34 95.9949 153.437ZM50.5529 150.301C50.5535 150.576 51.2723 150.32 44.0939 152.031C40.5623 153.812 41.5452 153.289 39.6322 154.388L40.4848 153.153L35.5496 156.004C35.7768 154.421 39.8893 152.503 32.9838 156.289C33.3748 154.843 35.4133 153.738 36.5876 152.963C40.7434 150.217 45.6638 149.096 50.5529 150.301ZM114.9 149.064C114.901 149.198 114.691 148.994 116.328 150.301C111.739 149.304 115.664 150.325 115.665 150.681C114.57 150.79 114.713 150.738 114.714 150.872C116.029 151.2 115.856 151.118 115.856 151.251C114.287 151.644 114.117 151.542 116.618 151.917L115.384 152.583C116.082 153.066 118.243 153.175 118.119 151.917C117.983 150.517 116.132 149.357 114.9 149.064ZM103.306 150.015C104.073 149.537 104.902 148.736 105.87 148.779L104.543 150.681L106.063 150.206C105.679 151.471 103.871 151.09 103.311 152.012C107.534 151.378 107.07 151.4 107.207 151.536C105.684 152.735 105.879 152.544 105.879 152.677L109.205 152.677C108.778 153.463 107.485 153.884 106.642 154.008C107.647 154.781 109.976 154.226 110.666 153.248C111.023 152.741 111.034 152.133 111.005 151.536C110.814 147.534 105 146.436 103.306 150.015ZM116.701 146.973C116.701 147.1 116.644 147.068 116.986 147.068L116.701 146.973ZM33.8136 145.768C33.9234 145.768 33.7316 145.854 33.8136 145.768V145.768ZM66.4132 144.786C66.5411 144.914 66.54 144.913 66.4132 144.786V144.786ZM39.7035 144.691C39.8315 144.819 39.8304 144.818 39.7035 144.691V144.691ZM39.8943 144.596C40.0212 144.724 40.0201 144.723 39.8943 144.596V144.596ZM46.4498 143.551C46.1084 143.665 46.1652 143.614 46.1655 143.741C46.642 143.621 46.5767 143.677 46.4498 143.551ZM52.5321 143.075C52.659 143.201 52.659 143.202 52.5321 143.075V143.075ZM58.5196 143.075C58.6475 143.202 58.6465 143.201 58.5196 143.075V143.075ZM71.4593 148.114C72.1218 147.265 73.5592 146.648 74.5913 146.403L74.5911 146.307C69.6648 146.321 67.7994 148.325 66.5171 148.495C66.9486 147.215 69.1543 145.91 70.4077 145.548L70.4074 145.452C67.4396 145.695 64.3406 147.494 63.3787 147.544C64.0845 145.006 71.5645 143.651 60.0488 146.403C60.6805 144.151 69.391 142.583 56.9099 145.265L53.2053 146.593C53.418 146.013 54.0395 145.635 54.5334 145.296C58.0223 142.888 58.4258 143.546 58.4249 143.171C53.4685 143.811 48.3444 146.579 47.9774 146.213C48.7265 144.957 51.1475 143.665 52.5326 143.266C52.5318 142.917 49.0834 143.792 44.7447 145.951C43.7037 146.468 42.5668 147.432 41.4218 147.639C41.6879 146.911 44.6737 144.542 46.1657 143.837L46.1655 143.741C39.5931 145.263 32.1539 151.643 36.1938 147.639C39.5781 144.288 39.7049 145.242 39.7038 144.786C30.1339 149.494 32.6403 148.247 28.2164 150.491C30.1121 148.373 28.8238 149.516 33.7189 145.833C29.3215 146.851 23.9583 149.809 21.372 149.92C22.0744 148.527 30.0591 144.808 31.6229 144.135C48.8246 136.738 69.6911 139.342 81.6244 146.077C84.7131 147.817 85.1998 147.988 85.0762 148.358C84.9757 148.657 84.6178 148.536 82.0091 147.67C77.8326 146.285 72.1037 148.058 71.4593 148.114ZM80.0882 139.463C80.2151 139.59 80.214 139.59 80.0882 139.463V139.463ZM3.52571 159.427C4.61002 158.96 12.6805 154.067 23.5652 152.979C29.6071 152.374 34.1297 153.837 31.8378 154.389C31.5158 155.582 26.5441 161.19 26.1634 165.987C27.2323 165.233 27.4901 164.11 32.0446 160.922C39.3919 155.778 51.7839 150.733 60.0658 153.375C60.5293 153.524 62.1777 153.815 62.2624 154.389C62.3161 154.756 56.282 159.004 52.1689 164.561C51.4686 165.507 50.479 166.725 50.216 167.888C52.474 166.831 54.5825 165.448 56.8606 164.4C74.5563 156.267 83.5241 159.005 90.309 160.283C90.4638 159.756 90.4066 159.202 90.5635 158.666C91.0939 156.864 92.4543 154.982 94.3827 154.579C94.1989 153.166 94.1527 151.95 94.6578 150.586C84.9193 144.153 82.3465 143.723 72.8686 141.16C70.5643 140.537 68.1876 139.643 65.8301 139.285C50.1331 136.912 33.6931 140.472 19.8462 147.989C15.8504 150.159 12.113 152.765 8.45812 155.46C6.89023 156.616 4.68224 157.85 3.52571 159.427ZM232.254 135.28C232.382 135.408 232.381 135.407 232.254 135.28V135.28ZM92.2424 134.71C92.3704 134.837 92.3693 134.836 92.2424 134.71V134.71ZM111.664 147.449C112.095 148.337 112.711 147.632 113.375 147.427C114.95 146.939 116.084 146.071 117.457 145.134C130.46 136.268 134.179 136.837 138.726 136.298C139.006 136.266 140.089 136.038 140.175 136.48C140.285 137.043 135.119 138.18 135.12 138.608C135.939 138.608 137.234 138.386 137.878 138.988C126.45 141.87 125.473 141.188 132.086 141.649C131.461 142.237 122.3 143.521 122.302 144.121C126.127 144.231 125.629 144.14 125.63 144.406C116.659 147.153 117.556 146.837 117.557 146.973C120.065 146.973 119.446 146.853 120.254 147.337L117.939 148.019C118.274 148.569 118.98 148.88 119.422 149.359C121.971 152.122 120.024 154.065 119.761 154.579C126.822 154.225 124.113 154.107 131.643 155.244C130.191 153.352 125.176 150.846 124.6 150.718C124.389 150.671 123.961 150.723 123.871 150.462C123.725 150.042 124.615 149.699 124.882 149.562C129.086 147.407 133.38 145.687 140.082 146.324C142.279 146.532 145.217 147.331 145.217 147.068C142.428 145.524 139.406 143.578 136.082 143.551C136.382 141.808 138.85 140.591 140.255 139.653C145.679 136.033 153.243 134.073 156.115 133.95C155.396 133.517 154.265 133.725 153.454 133.648C150.785 133.394 148.037 133.565 145.374 133.75C125.814 135.122 114.652 145.406 111.664 147.449ZM243.118 146.592L243.022 146.592C242.985 147.076 242.972 147.837 242.456 148.019C241.806 141.575 241.914 142.22 241.776 142.22C241.238 145.055 241.384 144.691 241.117 144.691C240.8 141.939 241.028 143.399 240.055 138.037L239.96 138.037C239.962 138.679 240.186 140.373 239.396 140.604C239.183 135.893 236.62 133.802 236.524 132.047C238.536 132.254 244.093 139.298 244.797 145.072C244.967 146.465 244.861 150.167 244.338 150.324C243.945 150.441 243.818 149.79 243.757 149.54C243.526 148.582 243.2 147.574 243.118 146.593M91.3138 130.685C91.3743 130.804 91.335 130.727 91.3138 130.685V130.685ZM243.734 126.724C243.862 126.851 243.861 126.85 243.734 126.724V126.724ZM116.746 126.629C116.624 127.433 115.039 128.67 113.375 130.812C110.425 134.61 109.885 138.512 109.552 138.512C109.1 137.095 109.739 135.755 109.45 135.755C107.913 140.09 108.351 138.729 107.468 141.839C106.986 140.218 107.752 138.227 107.459 138.227C105.599 142.448 106.095 141.375 105.191 143.171C104.575 139.894 108.458 132.382 112.475 129.064C113.547 128.179 115.304 126.704 116.746 126.629ZM78.8183 125.678C78.9462 125.805 78.9452 125.805 78.8183 125.678V125.678ZM115.79 124.062C115.917 124.188 115.917 124.189 115.79 124.062V124.062ZM91.0718 122.256C91.0716 124.365 90.6345 126.346 91.1976 128.435C91.6181 130.004 92.695 131.236 93.188 132.713C92.0754 132.401 91.6032 130.812 91.3775 130.812C92.0618 133.738 94.65 136.584 94.3396 136.896C92.3699 135.511 90.8374 131.704 94.8217 139.938C93.5127 139.563 88.1962 131.354 89.0928 126.154C89.1626 125.756 89.1813 125.228 89.6528 125.202C89.7679 124.412 90.238 122.516 91.0718 122.256ZM237.924 121.4C238.051 121.527 238.051 121.528 237.924 121.4V121.4ZM105.99 120.07C106.117 120.196 106.117 120.196 105.99 120.07V120.07ZM244.571 118.834C244.699 118.961 244.697 118.96 244.571 118.834V118.834ZM207.119 118.358L205.701 121.02L208.459 121.971L208.763 120.544C207.099 118.041 207.387 118.358 207.119 118.358ZM200.466 118.168C200.691 117.905 202.172 117.012 202.437 117.542C202.918 118.507 200.834 118.324 200.466 118.168ZM216.716 116.837C215.889 120.059 214.444 120.64 214.445 121.02C216.109 122.808 216.361 122.659 213.591 121.4L214.831 123.206L212.928 122.445L213.979 124.633L212.17 123.396L213.412 126.154C212.46 125.85 211.855 124.946 211.316 124.157C211.021 124.157 212.652 129.504 214.986 126.723C217.202 124.081 217.571 118.232 216.716 116.837ZM232.208 116.552C232.336 116.679 232.335 116.679 232.208 116.552V116.552ZM108.257 114.746C108.385 114.872 108.384 114.872 108.257 114.746V114.746ZM206.062 113.604C202.025 116.13 201.292 115.65 198.746 114.46C198.598 116.205 198.398 117.556 198.844 115.981C199.764 116.476 199.652 118.223 200.315 119.02C202.251 121.345 205.448 116.12 205.975 116.647L204.747 119.499C205.479 118.978 206.508 117.689 206.575 116.742C206.614 116.181 206.341 115.495 206.248 114.936C206.176 114.506 206.23 114.001 206.062 113.604ZM299.781 113.034C299.909 113.161 299.908 113.161 299.781 113.034V113.034ZM117.378 112.654C117.264 112.997 117.251 112.94 117.379 112.94L117.378 112.654ZM212.325 109.136C213.205 112.188 213.131 111.76 212.997 111.893C212.14 111.449 211.411 110.453 211.185 109.517C211.047 109.517 211.037 109.157 211.573 112.749C210.646 112.066 210.509 110.847 210.238 110.847C210.445 115.427 211.187 114.565 210.818 114.936C209.168 113.568 209.262 111.038 209.002 111.038C209.016 116.573 211.75 118.142 212.962 115.126C213.208 114.514 213.299 113.857 213.475 113.224L213.666 113.224C214.107 115.577 213.137 119.024 210.161 118.072C212.06 120.704 215.884 117.947 213.723 111.228C213.449 110.376 213.259 109.413 212.325 109.136ZM194.746 111.608C194.248 110.976 194.164 108.755 194.747 108.653C195.268 108.562 195.184 110.431 194.746 111.608ZM210.898 108.47C211.01 109.244 210.963 109.136 211.09 109.136L210.898 108.47ZM259.59 158.285C259.004 157.928 258.945 156.554 258.804 155.909C258.313 153.662 257.34 151.422 257.001 149.159C256.735 149.159 257.184 151.487 256.441 153.248C255.892 153.248 255.698 149.455 255.517 148.494C254.973 145.632 254.123 142.862 253.462 140.033L253.367 140.033C253.654 141.553 253.924 146.225 253.291 147.543C252.821 147.543 252.783 143.868 252.434 142.41C251.583 138.851 249.251 132.903 249.072 132.903C249.391 134.119 250.134 138.719 249.278 139.557C248.875 138.606 248.921 137.427 248.634 136.421C247.711 133.188 246.24 129.224 243.829 126.819C244.431 128.583 245.527 130.904 244.985 132.808C244.486 132.808 245.224 131.413 240.363 124.633C235.354 117.652 240.07 123.869 239.174 127.674C236.447 122.534 239.991 127.933 234.47 119.309C229.513 113.217 234.563 119.169 233.838 122.066C233.562 122.066 232.692 119.652 231.056 117.408C228.734 114.22 226.086 111.525 225.248 107.521C226.033 107.339 227.117 109.257 227.724 109.763C238.534 118.744 244.129 122.055 249.784 129.291C256.134 137.418 259.565 148.02 259.59 158.285ZM193.797 111.988C191.944 111.431 193.267 106.389 193.88 107.107C194.177 107.458 193.869 108.326 193.925 108.756C194.043 109.679 193.932 110.891 193.797 111.988ZM203.009 108.565L202.818 108.565C202.397 107.844 202.141 107.19 202.433 106.379C203.252 106.635 203.168 107.889 203.009 108.565ZM218.401 106.093C218.112 106.808 219.078 107.705 219.357 108.375C218.595 108.308 218.133 107.865 217.549 107.425C217.414 107.56 217.234 107.232 218.98 109.516L217.457 108.946L218.603 111.227L217.08 110.467C217.364 111.143 218.191 112.869 219.172 112.216C220.862 111.091 220.06 106.869 218.401 106.093ZM198.154 105.808C198.282 105.936 198.281 105.935 198.154 105.808V105.808ZM201.291 105.714C201.404 107.111 202.454 108.936 202.063 110.277C200.078 109.687 200.527 107.198 201.005 105.714L201.291 105.714ZM220.015 105.429C220.142 105.555 220.142 105.555 220.015 105.429V105.429ZM124.2 103.907L124.295 104.287C124.816 104.191 125.532 104.21 125.209 104.953C124.721 106.069 123.903 106.04 121.281 108.946C116.833 113.88 115.816 118.436 117.283 112.938C113.923 118.071 114.811 116.724 113.211 119.118C113.295 117.087 116.561 110.009 120.784 106.367C121.755 105.528 122.96 104.304 124.2 103.907ZM196.34 102.386C192.681 104.504 190.616 111.771 194.179 112.589C195.055 112.791 195.896 112.448 196.745 112.273C196.117 110.113 195.444 108.414 195.597 106.093C195.754 103.718 196.513 103.01 196.34 102.386ZM167.823 101.911C167.951 102.038 167.95 102.038 167.823 101.911V101.911ZM219.151 101.911C219.043 102.795 219.026 102.672 219.153 102.672L219.151 101.911ZM213.346 99.1543C213.346 99.3653 215.639 100.541 215.826 102.767C214.973 101.943 215.115 101.03 211.352 100.105C211.353 100.241 211.077 99.9561 213.829 102.386L211.166 101.435L212.405 103.147L210.787 102.386L212.506 105.429L210.792 104.193C210.638 104.974 212.511 107.594 214.601 106.714C217.9 105.325 216.994 99.321 213.346 99.1543ZM120.006 99.0593C120.133 99.186 120.132 99.186 120.006 99.0593V99.0593ZM204.316 98.9644C203.463 99.5647 202.381 99.4254 201.467 99.9466C198.801 101.469 198.005 105.619 198.343 105.619C198.613 104.443 199.335 102.624 200.426 102.006C200.326 104.44 199.419 106.535 199.865 109.041C200.049 110.071 200.721 111.409 201.969 111.197C204.065 110.838 204.684 107.927 205.26 108.055C205.742 108.163 204.948 110.396 204.726 110.942C205.471 110.942 209.41 102.445 204.316 98.9644ZM246.994 98.9C247.076 98.9855 246.884 98.9 246.994 98.9V98.9ZM246.708 98.7734C246.835 98.9011 246.834 98.9 246.708 98.7734V98.7734ZM68.5801 97.7279C70.2911 106.811 70.0779 105.903 70.2161 105.903C70.2289 103.789 71.0686 100.771 71.4389 100.771C71.5869 104.825 71.4343 102.352 72.1297 111.132C72.2669 111.132 72.1464 111.481 72.9238 107.996L73.5449 107.045L73.4695 111.608C74.46 120.674 73.6077 113.348 75.1737 112.274L75.307 116.742C76.8937 125.468 75.565 117.854 77.0871 117.407C77.0942 120.313 78.2374 122.797 78.7231 125.583C79.0238 125.583 78.3349 122.535 79.3797 121.876C79.4979 124.49 80.8966 126.633 81.4881 129.101C81.7054 129.101 81.4147 127.565 82.0513 126.058C82.621 126.058 81.5553 125.519 84.3496 133.283C84.6576 133.283 83.9139 130.244 85.0062 129.576C85.0248 135.504 89.9666 139.281 91.4373 144.12C91.515 144.377 91.7896 144.954 91.5982 145.199C91.3763 145.482 90.9962 144.929 90.882 144.786C84.1153 136.281 68.2661 124.705 68.1211 104.573C68.1052 102.415 67.7582 99.8232 68.3902 97.7279L68.5801 97.7279ZM216.002 96.8722C216.13 96.9999 216.129 96.9988 216.002 96.8722V96.8722ZM281.987 105.048C280.964 105.304 279.291 104.514 278.278 104.232C275.505 103.462 272.678 102.879 269.909 102.101C269.909 102.239 269.392 101.908 274.573 104.795C276.699 106.501 277.492 106.6 272.291 104.577C257.363 99.4307 266.302 102.132 266.967 104.478C264.802 103.573 265.328 103.047 257.072 100.295C256.562 100.125 253.171 98.708 253.173 99.2492C255.047 99.8 258.29 102.325 258.6 102.957C256.737 102.713 255.342 100.872 247.089 98.9644C247.09 99.3284 246.92 98.4748 250.801 101.055C251.092 101.25 252.246 101.894 251.945 102.196C250.843 101.895 249.801 101.341 248.71 100.993C246.891 100.413 245.027 100.016 243.193 99.494C242.174 99.2028 240.933 98.3514 239.864 98.5835C241.453 99.3263 244.32 99.9382 245.289 101.531C242.585 101.294 242.482 99.858 233.497 99.2408C223.666 98.5624 238.885 96.3584 242.425 96.2033C261.964 95.3487 281.29 103.712 281.987 105.048ZM140.376 111.228C145.119 109.862 150.756 105.714 166.22 107.147C166.855 107.207 167.725 107.188 167.933 107.902C168.972 108.518 164.15 110.339 160.829 118.358C162.575 117.022 168.5 109.899 179.434 107.787C181.11 107.464 182.781 107.38 184.47 107.22C184.884 107.181 185.943 106.919 186.124 107.503C186.22 107.814 185.715 108.001 185.535 108.152C184.734 108.823 182.037 113.929 180.789 117.789C181.635 117.393 182.389 116.569 183.161 116.021C187.376 113.039 189.381 112.849 189.99 111.928C190.306 111.45 189.565 110.903 190.03 108.566C190.618 105.597 192.797 103.036 195.483 101.721C194.437 99.3864 194.074 100.124 191.867 100.201C186.814 100.386 184.822 101.751 183.411 101.531C186.243 100.046 186.89 100.092 179.989 101.475L177.234 102.196C178.027 101.182 179.798 100.828 179.797 100.58C172.506 101.523 167.495 105.221 172.385 101.721C172.384 101.155 166.074 104.1 165.168 104.478L167.729 102.006C164.848 102.69 162.211 104.363 159.468 105.429C161.229 102.254 166.72 101.627 154.427 104.478C155.133 103.621 156.39 103.045 157.369 102.553C163.578 99.436 168.13 98.5582 173.325 97.557C187.086 94.8993 189.282 96.887 194.332 97.6329L194.803 96.1115C193.124 95.6157 173.612 92.9928 152.05 103.789C149.863 104.884 141.756 109.53 140.376 111.228ZM196.899 97.9199L198.986 96.3036L198.515 97.7289C199.229 97.2309 199.772 96.542 200.698 96.4935L199.941 97.9199C201.385 97.2447 201.93 96.6792 202.5 95.162C200.462 94.7843 197.257 95.4891 196.899 97.9199ZM202.79 96.9682C204.226 95.7286 203.569 96.0915 205.733 95.4479C205.261 96.4671 204.759 96.5009 205.549 97.539C205.814 97.539 205.568 97.7521 206.875 96.1126C206.877 97.0442 206.843 97.7458 206.407 98.5846L208.302 96.3985C207.906 98.6795 208.131 97.979 207.359 99.5352C208.714 98.9021 210.128 96.0873 208.579 94.9531C206.784 93.6385 203.825 95.4943 202.79 96.9682ZM125.693 92.5951C125.499 93.417 124.646 94.0753 124.098 94.6862C122.781 96.1548 121.492 97.6604 120.101 99.0593C121.317 98.5519 122.926 97.27 124.279 97.3481C115.028 104.586 116.379 103.302 120.583 101.817C120.151 103.1 118.605 102.417 111.666 109.232C113.391 108.313 115.253 106.677 117.267 106.475C116.773 107.382 115.225 108.079 114.421 108.749C112.323 110.496 109.928 112.502 108.352 114.746C109.204 114.134 113.081 111.255 114.333 111.513C112.971 113.285 110.378 113.548 106.085 120.07C107.18 118.974 108.917 117.193 110.545 117.028C110.296 117.902 109.08 118.625 108.487 119.309C106.683 121.389 103.479 126.249 104.104 126.249C104.748 124.859 107.209 122.744 108.752 122.447C108.14 123.318 105.165 125.842 102.531 131.763C101.722 133.583 101.378 136.906 100.52 137.657C100.091 136.218 100.976 129.61 101.217 128.15C103.678 113.251 110.062 107.234 115.326 101.246C117.516 98.7576 120.02 96.58 122.657 94.5796C123.508 93.9329 124.595 92.7175 125.693 92.5951ZM205.814 89.4574C205.941 89.584 205.941 89.585 205.814 89.4574V89.4574ZM141.16 82.0425C137.264 84.3119 108.253 94.3697 100.173 127.01C99.537 129.579 99.1542 132.189 98.7755 134.804C98.2797 138.24 97.8774 136.348 98.7945 142.6C99.7471 149.086 100.107 147.635 102.069 149.445C103.071 147.294 104.739 145.55 107.287 145.55C108.08 145.55 108.811 145.846 109.57 146.023C110.142 138.799 119.446 128.299 129.566 121.591L129.565 121.495C122.549 121.495 114.936 125.907 114.515 125.6C114.074 125.279 114.501 123.931 114.576 123.492C114.963 121.231 115.953 119.104 117.231 117.218C125.644 104.792 137.409 102.533 137.408 102.197C133.235 101.335 127.491 101.874 126.287 102.264C126.102 102.324 125.749 102.65 125.558 102.485C124.776 101.814 128.53 90.5736 141.256 82.1375L141.16 82.0425ZM73.2934 81.7576C71.6764 83.5185 70.3555 85.6107 69.2921 87.7471C62.239 101.923 68.1215 117.744 75.9739 130.241C77.7889 133.132 79.5634 136.215 81.8124 138.798C83.4583 140.688 85.367 143.031 87.5138 144.362C90.0271 145.921 93.3734 146.892 95.035 149.54L95.2259 149.54C96.0492 148.456 97.1465 147.669 98.5473 147.639C98.1955 145.681 97.1984 143.856 96.8791 141.839C96.7184 140.824 97.142 139.322 96.7927 138.417C96.2173 136.926 92.146 134.075 92.1037 116.742C91.9676 116.742 92.2495 115.971 89.84 123.682C88.9471 123.041 86.5898 118.865 86.0948 117.882C80.9686 107.702 82.1327 97.538 81.697 97.538C80.4367 103.713 80.3573 110.942 80.5883 110.942C81.2399 108.644 81.0782 108.946 81.344 108.946C81.7745 110.733 81.4332 112.644 81.9165 114.46C82.4307 116.391 83.6419 117.771 84.5069 119.499C83.0432 118.82 82.3428 117.122 82.1245 117.122C82.8611 120.269 85.9913 122.585 85.6556 122.921C83.3363 121.342 82.9908 120.259 82.7028 120.259C84.6871 124.594 84.1167 123.428 85.2823 125.583C84.2435 124.819 83.4511 123.455 82.8166 122.351C81.2551 119.632 79.1566 116.026 79.9281 112.75C80.6306 114.008 80.5013 114.192 80.4941 111.228C79.5793 111.574 79.2702 110.689 78.8359 109.992C75.9142 105.321 72.9256 100.083 72.7273 88.8201C72.6245 83.0258 73.6113 82.7937 73.2934 81.7576ZM143.819 80.6161C143.371 81.0655 143.414 80.9959 144.106 80.9959C143.292 82.5268 137.258 86.3513 130.779 95.5418C129.503 97.3512 128.42 99.3178 127.045 101.055C133.848 98.2206 140.166 100.244 140.642 102.672C139.526 102.769 124.214 108.338 115.886 124.062C120.675 121.099 126.621 117.892 131.94 120.151C132.228 120.274 133.104 120.536 132.925 120.994C132.805 121.294 132.285 121.264 132.038 121.399C131.85 121.501 125.813 126.899 124.26 128.347C118.834 133.415 113.949 139.393 111.092 146.306C126.084 129.097 158.19 129.184 160.774 134.139C154.883 136.151 148.892 137.516 143.204 140.128C138.107 142.471 138.157 142.325 137.698 142.79C138.428 142.574 139.33 142.741 140.074 142.861C143.25 143.377 145.553 144.752 147.506 147.638C149.28 150.25 140.954 146.166 126.595 150.205C128.903 151.198 131.365 151.813 132.801 154.102C133.064 154.523 134.099 155.957 133.519 156.385C132.992 156.775 131.806 156.625 131.173 156.686C131.159 156.687 124.996 157.269 124.616 157.43C127.402 158.753 130.298 162.677 129.726 165.891C129.568 166.779 129.028 167.361 128.54 168.077C129.745 168.639 138.324 176.754 143.704 182.718C156.172 196.535 182.276 236.919 182.552 255.729C182.575 257.257 182.598 258.764 182.563 260.293C182.556 260.625 182.734 261.703 182.332 261.86C181.898 262.03 181.854 261.298 181.073 257.44C178.093 242.736 178.624 247.998 177.387 242.705C176.116 243.978 174.513 244.596 172.926 245.39C172.133 245.787 171.238 246.351 170.362 246.507C170.669 245.847 171.339 245.388 171.879 244.918C173.259 243.722 175.068 241.96 177.004 241.944C174.891 236.368 176.506 239.948 169.838 226.544C168.253 227.674 165.498 228.565 163.57 228.825C163.742 228.263 164.432 227.941 164.899 227.622C166.159 226.762 167.493 225.547 168.979 225.117C163.641 215.99 165.011 218.35 162.679 214.28C160.798 215.272 158.439 216.438 156.317 216.752C156.481 216.188 157.107 215.868 157.549 215.515C158.759 214.555 160.171 213.298 161.63 212.759C160.543 210.254 158.699 207.822 157.207 205.534C156.868 205.012 156.246 203.47 155.611 203.315C155.024 203.172 152.364 204.849 150.3 205.154C151.613 203.65 150.698 204.444 154.57 201.541C146.661 190.382 147.278 191.18 147.13 191.18C146.685 191.699 145.948 191.933 145.327 192.186C144.128 192.677 142.742 193.488 141.432 193.556C142.236 192.23 145.751 190.575 145.917 189.785C146.017 189.305 139.378 182.038 139.055 181.673C138.597 181.156 137.628 179.685 136.93 179.55C136.329 179.434 133.861 181.387 131.804 181.863C132.538 179.954 135.597 178.197 135.597 177.964C134.57 177.242 135.867 178.229 128.356 171.021C122.966 165.854 122.004 169.75 119.895 170.549C120.097 169.401 121.136 168.577 121.693 167.603C119.413 166.005 120.019 166.506 118.923 165.366L115.89 165.32C118.33 169.936 116.806 170.537 117.429 171.785C117.863 172.652 119.099 173.429 119.813 174.084C121.226 175.384 122.547 176.799 123.906 178.155C124.585 176.839 126.099 176.056 127.321 175.321C127.862 174.995 128.381 174.585 129.03 174.543C128.864 175.137 128.317 175.543 127.892 175.968C126.916 176.947 125.854 178.224 124.477 178.63C129.857 184.496 127.659 182.033 134.199 189.562C134.508 188.986 135.148 188.749 135.717 188.487C138.934 187.01 139.566 186.477 140.275 186.616C138.365 188.367 139.517 187.486 134.962 190.609C138.477 194.636 142.025 200.525 142.504 200.616C143.231 200.755 146.585 198.231 148.763 198.119C148.628 198.764 147.953 199.033 147.435 199.359C146.079 200.212 144.723 201.384 143.259 202.017C147.816 209.204 146.583 207.169 148.89 211.238C150.608 210.337 152.56 209.792 154.398 209.178C158.406 207.841 156.653 208.739 149.749 212.569C151.01 215.257 152.629 217.802 153.963 220.459C154.236 221.002 154.874 222.986 155.488 223.115C156.372 223.303 160.908 221.166 163.741 220.935C163.257 221.791 161.591 221.838 157.666 224.072C157.274 224.294 156.574 224.523 156.332 224.92C156.157 225.203 156.479 225.63 156.601 225.878C157.244 227.17 161.729 237.283 161.978 238.713C164.108 238.398 166.052 236.952 168.247 236.906C167.227 238.596 162.828 239.744 162.832 240.713C162.834 241.239 170.562 260.673 167.532 271.796C167.419 272.212 167.288 273.482 166.805 273.626C166.302 273.775 166.414 272.355 166.377 272.081C165.626 266.46 167.574 263.31 161.359 244.797C153.775 222.204 140.857 199.861 121.922 179.58C115.688 172.907 116.878 173.687 115.342 174.631C112.756 176.219 109.266 174.539 106.782 172.166C106.358 173.963 107.15 176.385 107.536 178.155C109.728 188.192 115.423 198.995 115.31 200.401C114.113 200.339 112.796 199.484 111.79 198.879C109.227 197.342 107.56 195.147 106.071 192.605C103.783 188.701 104.759 188.898 104.352 188.898C104.358 191.727 105.557 200.83 108.273 209.812C109.23 212.978 110.534 216.167 111.174 219.414C109.928 219.093 108.62 217.923 107.651 217.106C101.828 212.191 101.394 206.009 101.066 206.009C101.036 211.182 99.2826 212.573 101.64 222.076C102.497 225.534 103.124 226.55 101.875 225.878L102.162 226.544C101.126 226.474 100.041 225.437 99.2113 224.859C88.9109 217.672 84.8632 204.631 86.3292 193.272C86.8841 188.975 89.2924 182.908 88.843 182.908C87.9626 184.804 86.5923 186.539 85.5112 188.327C85.2443 188.767 84.7726 189.975 84.1946 190.018C83.411 190.078 82.6371 188.522 82.3119 187.947C80.2502 184.304 82.0246 179.582 81.4212 179.582C79.3888 183.582 77.6085 182.425 71.5014 194.792C69.1847 199.486 69.4926 200.274 68.9045 200.518C68.4767 200.696 68.214 200.238 68.0476 199.925C67.6131 199.106 67.2439 198.229 66.9263 197.358C63.7499 188.643 73.6111 182.662 62.725 191.39C55.6711 197.045 47.3949 206.675 47.1744 206.675C44.7965 203.575 51.2225 182.237 72.3619 167.439C77.9401 163.534 83.5846 161.767 85.4651 161.613C85.4638 161.086 79.9214 161.495 79.4763 161.515C68.6661 161.988 58.3552 166.495 50.3154 169.713C49.8138 169.914 49.1463 170.048 48.7316 170.407C48.48 170.625 48.2702 171.123 47.8682 171.076C47.0494 170.98 47.8172 167.028 48.7147 165.226C50.3523 161.934 55.8325 156.781 59.975 155.054C59.9747 154.937 48.4094 154.188 34.3291 162.47C26.3183 167.182 26.327 169.032 24.6509 169.504C22.0319 164.399 26.5456 157.891 30.2235 154.673C25.2257 155.616 19.622 155.115 5.23901 160.382C3.77301 160.92 2.2201 161.728 0.680653 161.994L0.964052 161.423C0.394997 161.651 0.5205 161.645 0.393635 161.518C2.24567 157.069 12.0529 149.762 16.4218 147.004C35.7037 134.831 61.3476 132.214 82.185 141.934C78.8252 138.463 79.3267 139.084 80.0882 139.463C70.007 126.994 60.5664 110.36 65.271 93.8305C66.7886 88.5047 69.5856 83.9606 74.0512 80.6161C74.8282 83.0554 73.9506 84.7972 75.0583 93.0699C76.2434 101.916 78.2434 105.347 78.7742 107.616C79.2384 107.616 78.0536 101.485 80.6244 96.3025C81.2479 95.0481 81.865 93.7715 83.1112 93.0699C83.8799 95.1103 83.1557 104.799 87.7282 117.217C88.2443 118.622 88.6584 120.172 89.3589 121.495C89.9311 119.07 90.113 114.929 92.8571 113.795C95.3416 130.793 94.3664 125.841 97.0941 136.136C97.4184 135.028 96.8605 135.511 97.5821 130.336C102.062 98.1837 133.003 80.6235 143.819 80.6161ZM198.671 83.5628C197.289 83.9395 193.218 80.2975 186.026 81.9475C186.433 81.1594 187.857 80.8429 188.685 80.806C188.684 80.6688 189.422 80.711 182.03 80.711C182.028 79.9345 191.632 78.9976 176.232 80.5211C176.655 79.7699 178.355 79.311 179.175 79.1897C179.175 79.0514 179.913 78.9997 172.523 79.9503C173.076 78.1715 179.881 78.429 169.383 78.429C169.892 77.6176 183.449 74.5833 192.292 78.9966C193.411 79.5558 194.333 80.3165 195.338 81.0444C196.483 81.8748 197.823 82.3611 198.671 83.5628ZM263.95 74.9125C263.951 75.1826 264.438 75.075 260.529 75.2923C254.933 75.3978 255.492 75.3451 255.493 75.4822C256.926 75.5993 258.62 76.1997 259.867 76.9086C259.868 77.2347 260.904 77.0405 250.552 76.7177L250.553 76.8137C251.686 77.0827 252.925 77.8582 253.599 78.8098C250.246 78.3013 251.925 78.4775 245.993 78.0491L245.994 78.1441C246.939 78.2211 248.246 78.6136 248.848 79.3806C245.377 79.1453 247.041 79.101 241.34 79.657C237.116 79.8775 237.538 79.8132 237.538 79.9503C239.955 79.9503 242.304 80.2162 244.575 81.0908L244.575 81.2818C240.266 81.1668 242.047 81.0581 236.687 81.8515C236.687 81.9897 236.371 81.8526 239.542 82.8021L239.542 82.9931C238.467 83.2643 237.148 83.0859 236.026 83.1988C230.767 83.7264 228.221 85.712 228.029 84.9587C227.794 84.0313 238.947 72.1704 256.247 73.3827C258.696 73.5536 261.741 73.7488 263.95 74.9125ZM194.748 72.852C194.832 72.9364 194.638 72.852 194.748 72.852V72.852ZM189.127 67.7181C189.211 67.8036 189.018 67.7181 189.127 67.7181V67.7181ZM225.373 67.1801C225.433 67.2982 225.394 67.2233 225.373 67.1801V67.1801ZM238.931 66.4827C239.015 66.5671 238.82 66.4827 238.931 66.4827V66.4827ZM184.365 63.4093C184.492 63.5359 184.492 63.5359 184.365 63.4093V63.4093ZM218.61 61.6664C218.67 61.7846 218.632 61.7086 218.61 61.6664V61.6664ZM248.036 58.4654C248.164 58.593 248.163 58.592 248.036 58.4654V58.4654ZM176.103 66.3561C175.015 66.4816 173.486 65.0257 172.485 64.5899C170.221 63.6056 168.044 63.3998 165.639 63.0833C164.952 62.9937 162.769 63.3819 162.406 62.8386C165.998 62.2045 165.637 62.311 165.637 62.1728C162.758 62.1728 160.024 61.966 157.177 62.5537C157.636 61.7403 159.436 61.3889 160.312 61.3172C160.311 61.0714 156.502 61.2497 153.376 62.2688C153.77 61.506 155.13 60.9395 155.938 60.7475C155.938 60.6092 156.768 60.4394 148.529 62.5537C148.972 61.7181 150.296 61.0038 151.186 60.7475L151.185 60.6525C147.207 61.1663 145.273 62.4355 145.011 62.1728C146.007 60.489 150.572 59.1142 152.796 58.7429C165.975 56.542 174.871 63.9833 176.103 66.3561ZM209.008 74.1529C208.871 74.1529 208.957 74.5949 208.524 70.1606C208.388 70.1606 208.497 69.9548 207.957 71.587C207.691 71.587 207.755 72.0006 207.847 68.8291C207.73 65.6038 207.823 65.3063 207.284 68.4493C206.74 68.098 206.932 66.3403 206.825 65.6925C206.001 60.6936 204.898 59.072 204.881 57.5169C205.973 57.8303 206.967 59.8844 207.477 60.8445C209.755 65.1417 209.662 72.5988 209.008 74.1539M253.92 54.2842C254.047 54.4108 254.047 54.4119 253.92 54.2842V54.2842ZM219.504 51.6224C219.505 51.9642 219.473 51.9072 219.6 51.9072L219.504 51.6224ZM281.002 51.6224C281.003 51.9716 274.828 53.1532 274.828 53.4286C276.428 53.4286 278.367 53.3653 279.868 53.9994C279.869 54.5227 280.696 53.6649 269.32 55.2348C269.321 55.5292 272.707 54.9753 274.93 56.0905C274.93 56.2287 275.352 56.1833 271.128 56.2013C255.714 58.8684 268.225 56.5853 269.328 58.4675C260.908 58.4675 259.582 59.9498 254.699 61.87C254.003 62.1433 253.176 62.578 252.419 62.4598C252.781 61.1547 256.354 59.3854 257.826 58.4042C266.357 52.7175 279.322 50.7266 281.002 51.6224ZM188.759 72.3466C188.957 71.7442 189.69 72.0428 190.183 72.0607C192.049 72.1282 194.653 73.0409 194.652 72.7275C193.633 72.3414 192.73 71.5564 191.797 70.9972C184.883 66.8541 183.822 67.4544 183.136 66.4531C189.687 67.8258 189.033 67.7308 189.032 67.5936C186.526 66.5143 184.135 65.1364 181.61 64.0614C180.946 63.7797 179.275 63.4674 179.04 62.7447C184.948 63.4832 184.365 63.4537 184.364 63.3154C176.945 60.8804 179.682 61.5968 172.38 60.0828L172.379 59.8929C175.134 59.1797 177.512 59.6956 177.511 59.4181C169.565 56.8332 167.356 58.1077 165.626 57.6119L165.625 57.4209C168.339 56.4017 171.611 56.8227 171.61 56.5653C163.852 55.3214 166.205 55.506 161.058 55.6147C162.624 53.7831 167.042 53.9487 167.041 53.7135C160.698 52.881 163.436 52.957 154.875 53.5236C155.165 52.6394 158.406 51.4525 159.812 51.3364L159.811 51.2415C156.344 50.4164 152.988 51.5939 149.547 51.6224C150.256 50.2519 152.49 50.4534 153.534 49.5302C150.83 49.4131 147.795 48.4646 145.166 47.8073C143.877 47.4855 142.465 47.2872 142.795 46.8398C143.695 45.6202 176.565 45.521 198.589 73.0124C199.303 73.9049 199.914 74.9157 200.677 75.765C201.153 76.2957 205.59 80.8651 204.877 81.3652C204.311 81.765 199.67 77.4066 197.608 76.0963C194.882 74.3628 191.812 73.3226 188.759 72.3466ZM121.779 45.9177C121.779 46.229 139.027 45.3839 151.365 56.1306C152.089 56.7625 152.786 58.0033 151.272 57.4209C150.9 58.1172 142.281 60.8962 139.314 65.1217C143.135 63.8767 147.006 63.5718 151.002 63.6003C171.872 63.748 179.872 73.8775 179.52 74.8038C179.316 75.3461 172.016 75.5002 164.726 78.3182C163.267 78.8816 161.956 79.6739 160.548 80.3323L160.548 80.4272C185.253 80.4272 199.634 94.3074 187.934 84.8004C189.682 84.5366 194.332 88.2641 196.404 89.5534C195.486 87.3926 193.157 86.2173 191.83 84.4206C194.31 85.4524 195.879 87.3895 198.019 88.8887C197.276 87.1225 195.948 85.8481 194.871 84.3256C200.566 87.495 202.965 95.794 198.769 84.8004C202.005 87.0972 204.034 95.1061 200.955 84.8004C203.456 86.9981 204.532 91.6455 205.059 91.6455L202.571 84.6105C205.39 86.6351 207.261 94.7389 204.279 83.6599C206.005 84.9808 206.795 87.8421 207.046 87.8421C205.871 82.2472 205.946 82.8464 206.083 82.7093C207.456 83.7823 208.228 86.5159 208.758 88.128C208.874 87.6174 208.585 86.921 208.456 86.4167C206.289 77.8529 201.951 72.5914 194.826 65.9689C164.162 37.4626 126.103 45.8829 121.779 45.9177ZM297.321 38.8827C297.175 39.7288 295.651 39.4271 288.485 40.5391C287.233 40.7332 285.948 41.1099 284.684 41.1637C284.685 41.5266 284.884 40.8799 289.058 41.841C289.538 41.9507 290.302 41.975 290.486 42.4952C282.661 42.4952 276.162 44.1136 274.997 44.2064C274.998 44.4902 277.022 44.0598 280.701 44.7962C281.26 44.908 282.259 44.9513 282.603 45.4419C272.783 45.4145 270.926 47.015 268.065 47.2481C268.066 47.552 272.488 46.9643 275.387 48.4846L275.387 48.5796C266.816 48.5796 264.573 49.8351 261.894 50.1959C261.895 50.3932 269.282 50.0482 269.127 50.9482C268.999 51.6867 266.541 50.5852 258.099 52.9929C256.818 53.359 255.519 53.9941 254.204 54.1882C254.205 54.3264 253.339 54.3159 261.998 53.9983C261.85 54.4214 261.446 54.3792 261.049 54.433C252.947 55.5503 250.102 57.6878 248.226 58.3715C248.227 58.8568 252.532 57.1012 255.545 57.9917L255.545 58.0866C249.617 59.6186 251.639 58.9233 246.618 61.0576C240.501 64.0645 246.281 61.1895 250.422 62.1749L250.422 62.3648C242.784 64.5161 245.361 63.5887 239.026 66.3571C239.026 66.4964 238.175 66.5692 246.628 65.4065C246.236 66.0216 244.306 66.1588 243.588 66.3708C241.091 67.1094 238.984 68.501 236.657 69.5898C236.658 69.9506 237.729 69.019 241.409 69.019C241.265 69.518 241.284 69.0908 236.946 70.9603C231.724 73.2107 224.202 81.8315 223.817 80.4061C223.548 79.3943 229.394 73.5082 236.528 65.3116C247.344 52.881 266.032 42.5046 280.023 39.7014C287.777 38.1473 295.339 38.5081 297.321 38.8827ZM209.336 52.1921C209.066 52.1921 209.256 52.6848 208.377 48.7695L208.282 48.7695C208.192 49.3783 207.89 50.2614 207.336 50.5758C207.108 44.0271 207.174 44.6823 207.036 44.6823C206.716 47.9624 206.834 47.5341 206.568 47.5341C206.228 46.3957 206.208 45.0958 205.97 43.9216C205.639 42.2852 205.096 40.7079 204.759 39.0726C204.532 37.9648 203.778 36.6312 204.29 36.4824C204.869 36.3136 206.626 38.9987 207 39.7383C209.225 44.1347 210.005 49.9691 209.336 52.1921ZM216.646 87.6522C228.165 76.7831 219.158 84.7424 214.947 92.69C216.179 91.9842 219.609 87.2766 222.631 86.1308C220.238 88.8834 221.468 87.3853 217.039 92.9749C218.352 92.0486 219.24 90.2835 220.738 89.6483L217.425 95.067C221.119 92.0792 227.68 79.9714 218.949 96.4924C221.351 94.7611 224.298 90.1727 225.395 89.3624C223.895 94.1365 214.977 102.933 228.248 90.0281C227.355 92.402 225.123 94.3528 223.796 96.4924C224.976 95.7592 229.388 93.2281 234.707 88.2219C234.022 90.5726 231.687 92.018 230.348 93.9255C230.731 93.8274 231.222 93.82 231.567 93.6237C232.676 92.9949 233.554 91.482 234.523 90.6264C250.622 76.3853 276.409 77.8213 276.408 77.3845C271.529 75.2849 272.187 74.4683 260.046 72.0417C255.716 71.1766 254.598 71.5585 254.378 71.0014C254.126 70.3557 255.774 68.8956 256.167 68.4482C264.861 58.5572 288.578 55.7318 300.792 59.7019C300.317 58.6869 299.081 57.979 298.221 57.3059C295.74 55.3646 293.035 53.8939 290.225 52.5002C289.287 52.0359 287.673 51.7363 286.989 50.9556C286.725 50.9946 286.407 51.137 286.139 51.098C283.365 50.6981 299.686 37.6472 320.891 37.6472C320.304 37.3655 315.977 36.9804 313.854 36.7747C293.424 34.7986 274.894 36.9857 255.613 47.1743C241.058 54.8656 237.457 60.489 233.595 64.6458C230.181 68.3216 223.605 75.9549 223.222 76.5288C222.291 77.9278 221.822 79.7953 220.963 81.2829C219.674 83.5111 217.99 85.4661 216.646 87.6522ZM216.999 76.5288C216.642 75.6447 218.043 71.4182 218.499 67.9735C218.101 67.9735 219.018 67.9988 216.123 71.4899C215.744 71.9489 215.412 72.4131 214.803 72.5365C215.141 71.0943 218.038 65.8802 218.579 61.7941C218.193 61.7941 219.14 61.6295 216.342 65.4065C212.858 70.1057 218.899 59.5489 219.505 51.9072C219.119 51.9072 220.149 51.6836 216.722 57.6108C216.433 58.113 216.013 59.2314 215.341 59.1322C216.771 54.6989 218.465 50.2308 218.825 45.5369C218.402 45.5369 219.393 45.6413 216.631 50.2909C216.319 50.8163 216.047 51.4852 215.513 51.8112C217.068 44.5525 215.757 53.6291 217.952 38.5029C217.627 38.5029 218.025 39.3226 216.274 42.78C216.01 43.3033 215.737 44.0113 215.209 44.3014C215.257 43.1947 215.763 42.0721 215.954 40.9738C216.34 38.7466 216.863 33.6539 216.514 33.6539C215.276 38.103 215.68 36.992 214.721 38.7877C214.367 37.5639 215.092 35.6996 215.176 34.4146C215.349 31.8033 214.999 29.3102 214.881 26.7138C214.496 26.7138 215.342 27.9851 213.186 33.2741C212.92 33.2741 212.956 33.8712 213.272 29.2807C212.832 22.2045 212.918 22.9114 212.781 22.9114C212.769 24.8084 212.169 26.5977 211.463 28.3301C211.235 28.3301 211.298 28.3544 211.178 28.2352C211.724 25.2979 211.004 22.6824 210.873 19.7747L210.778 19.7747C210.772 20.7011 210.637 22.904 209.74 23.3872C208.48 10.7404 209.597 19.3211 208.021 19.8697C206.905 12.3071 207.208 12.7418 206.683 17.0179C206.253 17.0179 205.77 12.7028 204.36 9.98286C203.593 8.50157 201.724 6.94432 201.427 5.32483C202.902 5.40079 203.958 6.70905 205.044 7.53515C223.661 21.6844 225.724 53.9329 218.92 72.4416C218.527 73.5093 217.974 75.9116 216.999 76.5288ZM194.097 0.665746C195.098 2.08373 205.33 12.2902 207.014 28.7099C207.134 29.8863 207.415 35.8811 207.017 36.9815C205.779 36.1564 207.221 38.4733 204.044 33.369C201.81 29.7808 199.087 25.4657 195.577 23.0063C195.943 23.6626 204.135 35.5308 204.769 49.2443C204.875 51.5337 205.196 54.1281 204.689 56.3753C202.171 54.2304 203.751 55.544 197.354 50.2909C198.073 51.9895 199.854 53.2672 202.904 60.0828C206.637 68.4219 206.29 70.6818 207.027 73.4871C207.892 76.7884 209.188 80.0379 209.886 83.374C210.025 83.374 210.027 84.2402 209.583 75.5782C210.309 76.3031 210.442 77.9278 210.636 78.9059C211.685 84.1716 211.234 88.3169 211.515 88.3169C212.25 86.1276 215.04 79.6813 216.908 78.3351C216.726 78.9597 214.751 82.2841 213.792 86.5106C214.168 86.5106 214.188 84.3404 218.608 78.525C219.583 77.2452 221.071 76.2049 221.516 74.6276C223.45 67.792 223.71 60.9648 223.692 53.9034C223.634 30.0403 216.724 8.02574 194.097 0.666801M225.435 67.0218C225.72 67.0218 226.789 62.7995 224.779 70.9192C224.789 70.9097 247.175 32.8932 298.731 32.8932C314.815 32.8932 327.321 37.5723 324.599 38.026L325.17 38.5968C322.383 38.7181 319.342 39.7256 316.619 40.3418C303.854 43.2284 298.551 45.7194 291.452 49.0755C285.564 51.8576 290.376 47.7619 299.64 54.6989C300.656 55.4596 301.718 56.2361 302.516 57.2299C303.517 58.4759 304.997 60.8835 304.507 62.5537C297.251 60.5755 280.485 60.1999 267.823 64.9254C265.45 65.8106 258.137 69.3724 257.285 70.2545C260.175 69.5655 270.662 70.2619 276.114 73.6718C277.76 74.7015 279.133 75.996 280.265 77.5744C280.526 77.9394 281.466 78.966 280.933 79.4007C280.519 79.7383 279.885 79.197 279.453 79.1485C278.737 79.0683 277.788 79.4007 277.079 79.5336C268.45 81.1489 250.576 83.0163 234.436 93.9255C236.748 93.9445 238.225 91.7996 248.307 91.5495C270.427 91.0093 293.711 102.114 302.996 112.369C303.731 113.18 305.961 116.012 305.302 116.775C305.021 117.101 296.664 114.586 296.65 114.582C285.55 111.289 270.023 109.628 270.024 109.897C278.108 113.26 279.591 124.774 277.949 124.703C276.931 124.659 277.301 123.882 269.857 119.254C262.428 114.634 252.832 111.166 250.635 110.657C252.808 113.735 255.306 116.331 255.316 120.354C255.331 126.313 254.834 123.159 244.667 118.928C250.242 123.785 265.736 135.218 264.73 159.332C264.563 163.342 263.36 167.166 261.794 170.834C261.366 171.836 260.836 173.946 259.82 174.448C259.413 173.378 260.225 171.727 260.457 170.644C261.11 167.59 261.86 164.541 262.148 161.423C262.902 153.313 260.921 144.707 257.039 137.561C250.95 126.348 240.964 120.639 230.102 109.802C229.291 108.993 227.901 108.014 227.623 106.855C227.897 106.686 228.028 106.33 228.385 106.309C229.383 106.248 248.296 117.059 253.131 120.734C251.609 116.101 248.551 110.451 247.655 109.673C247.395 109.446 246.749 109.249 246.909 108.782C247.087 108.267 248.411 108.449 248.824 108.499C252.043 108.878 263.521 108.624 276.135 121.21C274.675 117.724 272.505 114.652 269.942 111.893C269.262 111.163 266.798 109.701 268.026 109.326C268.091 108.461 269.146 108.53 269.831 108.471C271.788 108.299 273.756 108.005 275.722 107.996C289.485 107.93 295.776 111.939 299.781 113.034C288.269 103.093 263.348 93.687 244.703 94.9626C243.984 95.0122 233.509 95.8942 232.825 96.0926C231.829 96.3806 230.9 97.0526 229.977 97.5148C227.556 98.727 225.106 100.032 223.049 101.816C225.312 101.174 228.187 100.207 230.555 100.771L230.555 101.055C217.278 105.737 227.896 101.997 227.899 103.148C222.484 105.224 222.762 105.874 220.778 106.284L221.065 106.76C222.559 105.648 223.94 105.334 225.814 105.334C225.665 105.802 225.171 105.955 224.77 106.19C223.794 106.764 222.811 107.562 221.637 107.616L221.925 108.566C222.877 107.612 223.63 107.331 224.963 107.331C224.212 108.264 223.202 108.717 222.116 109.137C222.235 109.633 222.152 110.286 222.407 110.737C222.85 111.516 224.156 111.916 226.09 114.746C231.018 121.962 231.039 129.88 229.964 130.907C228.277 123.309 229.75 128.899 228.06 129.861C226.895 117.855 227.713 124.566 226.623 125.393C226.616 122.528 225.894 119.635 224.986 116.932C224.848 116.932 224.88 116.549 224.995 120.354L224.805 120.354C224.579 117.662 222.949 115.265 221.935 112.845L221.84 112.845C221.162 114.286 219.751 115.235 218.138 114.936C221.272 118.036 222.868 119.256 225.627 129.101C228.648 139.876 228.693 150.586 229.061 150.586C229.369 146.701 231.047 146.635 231.015 133.284C231.42 133.353 231.558 133.57 231.682 133.949C232.489 133.545 233.154 134.726 233.605 135.28C239.3 142.288 241.803 149.336 243.949 158.952C246.214 169.092 245.273 168.648 245.643 168.648C246.264 162.198 246.714 160.483 245.692 149.73C247.3 150.2 248.791 151.66 250.072 152.734C259.008 160.218 260.841 173.405 259.307 174.145C258.324 174.622 257.721 166.177 251.792 157.621C249.91 154.902 247.664 152.489 247.313 151.726C246.877 151.726 250.008 158.803 248.159 166.272C247.591 168.566 246.568 170.58 245.653 172.736C244.895 172.736 242.668 160.924 239.807 152.582C235.721 140.671 233.456 138.947 232.445 135.47C232.132 135.47 234.767 143.561 231.647 150.206C231.005 151.574 230.265 152.853 229.417 154.103C227.483 156.949 228.097 153.467 226.211 143.741C222.758 125.951 221.027 124.115 218.814 119.404C218.49 119.404 219.593 123.847 217.27 127.675C216.04 129.703 213.541 130.875 211.425 129.382C210.597 128.799 210.119 127.956 209.613 127.105C207.768 133.73 206.668 140.748 205.631 147.544C201.288 175.996 202.458 205.077 208.771 233.199C214.425 258.384 223.544 266.474 222.255 267.418C221.889 267.687 221.31 267.062 221.074 266.843C212.276 258.703 211.07 249.456 209.89 248.941C209.781 248.895 200.324 248.229 200.308 248.228C199.445 248.168 196.981 248.289 196.98 247.649C202.609 247.279 199.843 247.471 209.239 246.793C208.873 245.224 204.759 233.97 203.482 224.263C196.521 223.254 198.397 223.55 194.924 222.931C198.562 222.547 196.682 222.743 203.096 222.076C201.298 212.654 200.54 201.712 200.382 201.477C200.139 201.116 199.167 201.194 198.767 201.135C197.213 200.906 195.666 200.63 194.108 200.413C193.574 200.338 192.411 200.408 192.206 199.83C194.847 199.337 197.601 199.069 200.283 199.069C199.902 197.041 199.98 194.854 199.884 192.795C199.13 176.498 200.009 172.562 199.645 172.016C199.274 171.459 194.703 170.274 192.321 169.219C192.321 168.997 191.472 168.703 199.927 169.6C199.907 161.549 201.713 153.592 202.72 145.643C200.835 145.36 198.987 143.74 197.39 142.771C196.857 142.448 195.881 142.077 195.675 141.46C198.189 141.659 200.787 142.592 203.095 143.551L207.8 123.967C206.481 123.588 205.058 122.312 204.658 122.297C203.378 122.251 202.343 125.494 197.72 122.256C197.363 124.951 196.196 127.718 195.458 130.337C196.992 130.567 198.727 131.495 200.12 132.168C200.584 132.391 201.371 132.579 201.549 133.094C199.362 133.094 197.028 132.942 194.893 132.428C192.918 139.448 191.373 146.563 190.003 153.723C192.049 154.12 194.385 155.148 196.187 156.195L196.188 156.385C193.195 156.299 194.649 156.455 189.627 155.625C188.007 167.154 187.403 173.756 187.037 185.285C188.901 185.137 190.715 185.353 192.552 185.723C193.123 185.838 194.144 185.896 194.36 186.521C191.992 186.541 189.369 187.569 187.042 186.996L187.296 212.854C189.78 212.372 192.899 212.245 195.375 212.854L195.375 213.044C189.45 215.18 191.224 214.645 187.397 215.516C187.45 225.508 189.042 233.557 189.061 235.29C205.213 235.089 203.184 234.921 189.638 238.333C190.387 241.2 190.894 244.123 191.695 246.983C194.225 255.997 198.783 264.984 197.752 265.149C197.202 265.236 196.572 263.9 196.322 263.525C189.691 253.614 186.818 242.564 185.327 230.347C183.823 218.025 182.031 179.225 186.244 155.53C190.129 133.69 195.964 120.599 196.254 118.834C196.443 117.687 196.28 116.21 196.277 115.031C192.737 115.762 192.586 114.191 191.523 114.504C190.431 114.827 180.047 120.384 179.566 120.264C178.76 120.062 178.94 117.838 178.974 117.218C179.15 113.988 180.902 111.196 183.144 108.947C172.806 112.94 169.697 113.918 161.31 119.907C160.833 120.248 160.015 121.183 159.413 121.182C158.845 121.182 158.927 120.456 158.935 120.07C159.018 116.364 160.448 112.93 163.472 110.263C166.225 107.837 166.32 108.672 166.319 108.282C148.34 109.702 143.663 113.11 135.728 114.461C135.71 107.215 168.01 87.6416 192.517 93.4402C193.841 93.7535 195.171 94.3 196.511 94.4973C195.961 93.8326 195.047 93.4254 194.322 92.9707C185.888 87.6881 177.612 85.2984 166.639 83.3191C165.96 83.1967 158.038 81.8262 157.89 81.8473C157.517 81.899 157.065 82.2957 156.686 82.0404C156.194 81.707 156.997 80.8134 157.21 80.5222C163.309 72.2116 177.168 74.4008 177.167 74.0569C174.551 73.2888 162.782 62.9884 136.184 67.4976C135.806 62.3364 144.501 56.9451 149.845 56.9451L149.845 56.8501C147.053 56.0873 144.425 54.3961 141.757 53.2777C133.362 49.7581 120.357 46.9116 118.264 46.8683C119.157 46.229 119.179 46.2975 118.263 46.2975C120.288 42.3812 171.197 31.8613 201.851 70.0646C206.1 75.3577 204.637 74.9125 205.114 74.9125C203.673 64.4106 194.765 49.9849 194.782 47.724C202.758 50.0947 203.246 53.9983 203.732 53.9983C201.623 45.9219 202.904 42.6502 193.177 23.2923C192.577 22.0958 191.507 20.6462 191.386 19.2989C196.688 19.3802 204.692 28.6234 205.58 32.3224C205.865 32.3224 204.808 23.5476 198.184 10.3627C194.416 2.8613 192.937 1.63639 192.764 1.1567e-05C194.408 0.278544 198.384 0.19414 204.464 3.66841C233.221 20.0923 225.477 64.745 225.435 67.0218Z" fill="#FFE6CD"/>
</svg>
