<svg version="1.2" xmlns="http://www.w3.org/2000/svg" viewBox="0 0 181 63" width="181" height="63">
	<title>Group 6s6 1-svg</title>
	<style>
		.s0 { fill: #ffffff } 
		.s1 { fill: #cca176 } 
	</style>
	<g id="Group 6s6 1">
		<path id="Vector" class="s0" d="m23.7 9.3q1.6 0.6 2.8 0.4 1.3-0.2 2.1-0.8 0.8-0.6 1.1-1.4 0.3-0.9 0-1.7-0.2-0.8-1.1-1.5-0.9-0.7-2.5-0.9-2.4-0.3-4 0.7-1.7 1-2.2 2.8-0.5 1.7 0.3 3.9 0.8 2.2 3.3 4.2 3.1 2.5 4.5 5.6 1.5 3.2 1.5 6.3 0.1 3.2-1.1 6.1-1.2 3-3.4 5.1-2.1 2.2-5.2 3.4-3.1 1.1-6.8 0.6-3.7-0.4-5.9-2.2-2.3-1.8-3.3-4.3-1-2.4-0.8-5.1 0.3-2.7 1.5-5.1 1.2-2.3 3.4-3.8 2.2-1.5 5.1-1.5 2 0 3.2 0.8 1.3 0.7 1.9 1.9 0.7 1.2 0.7 2.5 0 1.3-0.5 2.5-0.6 1.2-1.7 1.9-1.1 0.8-2.7 0.7 0.6-0.9 0.5-1.8-0.1-0.9-0.6-1.5-0.5-0.8-1.4-1.1-0.8-0.4-1.8-0.3-1.6 0-2.6 1.1-1.1 1-1.6 2.6-0.5 1.5-0.4 3.2 0.1 1.8 0.9 3.4 0.8 1.6 2.4 2.8 1.5 1.1 3.9 1.4 2.5 0.3 4.5-0.6 2.1-0.9 3.6-2.6 1.5-1.7 2.3-3.9 0.8-2.3 0.8-4.5 0-2.4-1-4.6-1-2.2-3.2-3.8-2.1-1.7-3.4-3.6-1.2-2.1-1.6-4.2-0.3-2 0.2-4 0.5-2 1.9-3.5 1.4-1.5 3.6-2.5 2.2-0.9 5.2-0.9 2.5 0 4.1 0.9 1.7 1 2.5 2.4 0.9 1.5 1 3.1 0.1 1.7-0.6 3.2-0.7 1.4-2.2 2.3-1.4 1-3.6 1-1.4 0-2.4-0.6-0.9-0.5-1.3-1.3-0.5-0.8-0.5-1.7 0.1-0.9 0.6-1.5zm18.7 22.1q-0.3 0.9-0.4 1.5-0.1 0.6-0.1 0.9 0.1 0.3 0.3 0.4 0.2 0.2 0.4 0.2 0.4 0.1 1.3-0.4 0.9-0.5 1.5-1.8h0.8q-0.7 1.5-1.5 2.6-0.8 1.1-1.7 1.8-0.8 0.6-1.7 0.9-0.8 0.4-1.5 0.3-0.5 0-1-0.1-0.4-0.2-0.8-0.5-0.4-0.3-0.6-1-0.2-0.6-0.2-1.5-0.8 1.5-1.7 2.3-0.9 0.8-2.1 0.8-0.6 0.1-1.3-0.2-0.6-0.3-0.9-1-0.4-0.7-0.4-2 0-1.3 0.6-3.3l3.8-12.4h4.5q-0.9 2.9-1.6 5.2-0.6 2.1-1.2 4.2-0.6 2-0.9 3-0.6 2-0.5 2.5 0.1 0.6 0.4 0.6 0.3 0 0.8-0.9 0.6-0.8 1-1.8l0.1-0.4 3.9-12.4h4.5q-0.9 2.9-1.6 5.2-0.7 2.1-1.3 4.2-0.6 2-0.9 3zm11.5-5q2.1 1.4 2.8 3.4 0.7 2 0.1 3.8-0.5 1.8-2.3 3.1-1.7 1.2-4.5 1.3-1.2-0.1-2.2-0.6-1-0.5-1.7-1.3-0.7-0.8-0.9-1.8-0.3-1 0.1-2 0.3-1.2 1-1.8 0.8-0.6 1.6-0.7 0.9-0.2 1.7 0.1 0.8 0.2 1.4 0.8 0.6 0.6 0.9 1.3 0.2 0.8-0.1 1.8-1-0.9-1.8-0.6-0.7 0.2-1.1 0.9-0.3 0.7-0.1 1.5 0.3 0.7 1.3 0.8 1.2 0.2 2-0.5 0.8-0.8 1-1.8 0.2-1.1-0.2-2.3-0.4-1.2-1.5-2-1.9-1.3-2.7-3.2-0.8-1.9-0.4-3.6 0.5-1.6 2.1-2.9 1.6-1.2 4.4-1.2 2.4 0.1 3.7 1.3 1.3 1.2 0.8 3.2-0.4 1.5-1.6 2.1-1.1 0.6-2.2 0.4-1.1-0.2-1.8-1.1-0.7-0.9-0.2-2.3 1.1 0.8 1.8 0.5 0.7-0.2 1-0.8 0.2-0.5-0.1-1.2-0.3-0.6-1.4-0.6-1 0.1-1.7 0.7-0.7 0.6-1 1.5-0.2 0.9 0.2 2 0.4 1.1 1.6 1.8zm16.5-18.9l-4.4 14.8q1-1.4 2.1-2.3 1.2-0.9 2.5-1 1.7 0 2 1.2 0.4 1.2 0 2.8-0.3 1.7-1 3.8-0.8 2-1.4 3.7-0.6 1.7-0.8 2.8-0.2 1.2 0.5 1.2 0.6 0 1.4-0.5 0.8-0.4 1.4-1.7h0.8q-0.6 1.5-1.4 2.6-0.8 1.1-1.7 1.8-0.8 0.6-1.7 0.9-0.8 0.4-1.4 0.3-1.3 0-1.9-0.6-0.6-0.7-0.7-1.8 0-1 0.3-2.4 0.3-1.4 0.7-2.9 0.5-1.4 1-2.8 0.6-1.4 0.9-2.5 0.4-1.1 0.4-1.7 0.1-0.6-0.3-0.7-0.4 0.1-0.9 0.7-0.5 0.6-1 1.5-0.5 1-0.9 2-0.4 1.1-0.8 2l-2.8 9.4h-4.5l9.1-30.6zm7 23.9q-0.3 1-0.4 1.6-0.1 0.6-0.1 0.9 0.1 0.3 0.3 0.4 0.2 0.2 0.4 0.2 0.4 0.1 1.3-0.4 0.9-0.5 1.5-1.8h0.7q-0.6 1.5-1.4 2.6-0.8 1.1-1.7 1.8-0.8 0.6-1.7 0.9-0.8 0.4-1.5 0.3-0.7 0.1-1.3-0.2-0.6-0.3-0.9-1-0.4-0.7-0.4-2 0-1.3 0.6-3.3l3.9-12.4h4.5q-0.9 2.9-1.6 5.2-0.7 2.1-1.3 4.2-0.6 2-0.9 3zm6.6-19.5q0 1.3-0.9 2.2-0.9 0.9-2.1 0.9-1.3 0-2.2-0.9-0.9-0.9-0.9-2.2 0-1.3 0.9-2.1 0.9-0.9 2.2-0.9 1.2 0 2.1 0.9 0.9 0.9 0.9 2.1z"/>
		<path id="Vector_2" fill-rule="evenodd" class="s1" d="m141.8 2q-0.5 3.3-1.5 7.5-1.1 4.3-2.6 8.8-1.5 4.5-3.4 8.8-1.9 4.3-4.1 7.7-2.2 3.3-4.7 5.4-2.5 2.1-5.2 2.1-1.7 0-2.9-1-1.1-1-1.8-2.8-1.9 1.8-3.8 2.8-1.8 1-3.7 1-2.2 0-3.5-1.6-1.2-1.4-1.5-4-0.4-2.5 0-5.7 0.4-3.2 1.4-6.6 1.1-3.5 2.6-6.8 1.6-3.4 3.5-6.1 1.9-2.8 4-4.7 2.2-1.9 4.5-2.4-1.2-0.5-2.9-0.7-1.6-0.2-3.3-0.2-4.3 0-7.6 1.9-3.3 1.9-5.6 4.8-2.3 2.9-3.5 6.2-1.3 3.4-1.5 6.3-0.3 2.8 0.5 4.8 0.7 1.9 2.5 1.9 0.8 0 1.3-0.6 0.6-0.5 0.5-1.3 0-0.7-0.7-1.2-0.6-0.6-2.2-0.6 0-1.4 1.1-2.1 1-0.8 2.3-0.8 1.3 0 2.3 0.7 1.1 0.8 1.1 2.6 0 1.2-0.6 2.2-0.5 1-1.4 1.7-0.9 0.7-2.1 1.1-1.1 0.4-2.3 0.4-3 0-4.8-1.3-1.8-1.3-2.6-3.4-0.7-2.1-0.5-4.8 0.3-2.7 1.5-5.4 1.2-2.8 3.2-5.5 2.1-2.7 4.9-4.8 2.8-2.1 6.4-3.4 3.6-1.3 7.8-1.3 2.8 0 5.3 0.7 2.6 0.7 4.3 2.2 0 0.1-0.1 0.1-0.1 0-0.2 0-0.1 0-0.2 0-1.3 0.3-2.8 2-1.4 1.7-2.9 4.2-1.4 2.5-2.7 5.6-1.3 3.2-2.4 6.3-1 3.2-1.8 6.3-0.7 3-0.9 5.4-0.2 2.4 0.2 3.7 0.4 1.5 1.5 1.5 1.8 0 4.8-3.3-0.4-2.1-0.2-4.8 0.1-2.7 0.6-5.6 0.6-2.9 1.5-5.9 0.9-3.1 2.1-5.8 1.2-2.8 2.6-5.2 1.4-2.3 2.9-4 1.6-1.6 3.3-2.3 1.7-0.8 3.4-0.3 1.4 0.4 1.6 2.2 0.2 1.8-0.5 4.4-0.7 2.7-2.1 5.8-1.3 3.2-3 6.5-1.6 3.2-3.4 6.2-1.7 3-3.2 5.2-0.3 3.1 0.1 5 0.4 1.9 1.7 1.9 1.1 0 2.5-1.5 1.5-1.3 3.1-3.9 1.6-2.6 3.2-6.1 1.7-3.4 3.3-7.6 1.5-4.2 2.8-8.9 1.3-4.7 2.2-9.6zm-11.4 2.6q-0.7-0.2-1.5 0.9-0.8 1-1.7 2.8-0.9 1.9-1.8 4.3-0.9 2.5-1.8 5.1-0.8 2.6-1.5 5.3-0.6 2.6-1 4.7 0.9-1.6 2.1-3.8 1.3-2.3 2.5-4.8 1.2-2.5 2.3-5 1.1-2.5 1.8-4.6 0.7-2 0.9-3.3 0.2-1.4-0.3-1.6zm21.9 14.8q-0.8 2.6-1.5 5-0.6 2-1.2 4-0.6 1.9-0.9 2.9-0.6 1.9-0.4 2.5 0.1 0.5 0.5 0.6 0.6 0.1 1.4-0.4 0.7-0.4 1.2-1.3 0.3-1.4 0.8-3.2l3.3-10.6h4.5q-0.7 2.3-1.3 4.3-0.5 1.8-1.1 3.6-0.5 1.8-0.8 2.7-0.4 1.2-0.7 2.2-0.3 1.1-0.4 1.9-0.1 0.8 0 1.2 0.2 0.5 0.7 0.5 0.8 0 1.6-0.7 0.8-0.7 1.6-1.9 0.7-1.2 1.3-2.7 0.7-1.5 1.1-3-1.1-0.3-1.7-1.5-0.5-1.1-0.4-3.1l4.9-3.3q-0.3 1.8-0.1 2.8 0.3 1 0.9 1.4 0.5 0.3 1 0.4 1.4-2 3.5-3.4 2.1-1.3 4.9-1.4 1.7 0.1 2.5 1 0.8 0.9 0.8 2.3 0 1.4-0.6 3-0.7 1.6-1.9 2.9-1.2 1.3-3 2.1-1.7 0.8-3.8 0.5-0.1 1.9 0.3 3.2 0.5 1.3 1.9 1.3 1.6 0 3.1-1 1.5-1 2.6-2.4 1.3-1.4 2.4-3.4h0.8q-1.2 2.7-2.8 4.7-0.7 0.9-1.6 1.7-0.8 0.9-1.8 1.5-1 0.6-2.2 1-1.1 0.5-2.4 0.4-2.3 0-3.6-1.4-1.3-1.3-1.6-3.4-0.2-2.1 0.4-4.6 0.2-1 0.7-2-0.8 0.5-1.6 0.6-0.5 2-1.4 3.9-0.9 1.9-2 3.5-1.1 1.6-2.5 2.6-1.4 0.9-3 0.9-1.7 0.1-2.5-0.5-0.8-0.6-1-1.7-0.1-0.4 0-1-0.1 0.1-0.2 0.2-0.8 1.1-1.7 1.8-0.8 0.6-1.7 0.9-0.8 0.4-1.4 0.3-0.9 0-1.7-0.5-0.8-0.5-0.9-2.1-1.1 1.1-2.5 1.9-1.4 0.8-2.7 0.7-1 0-1.6-0.6-0.7-0.6-0.8-1.9-0.2-1.3 0.2-3.2 0.5-2 1.6-4.6 1.2-2.6 3-4.5 1.8-1.9 3.8-2.9 2-1.1 4-1.3 2.1-0.1 3.7 0.6zm-8.6 13.6q0.2-0.8 0.5-1.7l2.9-9.8q-0.3-0.1-0.6-0.1-0.8 0-1.6 0.9-0.9 0.9-1.6 2.4-0.8 1.4-1.4 3-0.6 1.6-0.9 3.1-0.3 1.4-0.2 2.3 0.2 0.9 0.8 0.9 0.5 0 1.1-0.3 0.6-0.4 1-0.7zm30.3-12.7q-0.7 0.1-1.4 0.8-0.7 0.8-1.4 2.1-0.6 1.2-1.2 2.8-0.5 1.5-0.8 3 0.9 0.3 1.7-0.2 0.8-0.5 1.5-1.5 0.7-1 1.2-2.2 0.6-1.1 0.8-2.2 0.2-1.1 0.1-1.8 0-0.8-0.5-0.8z"/>
		<path id="GASTRONOMIE JAPONAISE &amp; SUSHI" class="s0" aria-label="GASTRONOMIE JAPONAISE &amp; SUSHI"  d="m11.8 57.2v1.6q-0.3 0.3-0.7 0.6-0.4 0.3-0.9 0.5-0.6 0.2-1.3 0.2-1.1 0-1.9-0.4-0.8-0.5-1.3-1.3-0.4-0.8-0.4-1.9 0-1.1 0.4-1.9 0.5-0.8 1.3-1.3 0.8-0.4 1.9-0.4 0.5 0 0.9 0 0.5 0.1 0.8 0.3 0.4 0.1 0.7 0.3l0.2 1.4h-0.1q-0.2-0.5-0.5-0.9-0.3-0.4-0.9-0.6-0.5-0.2-1.1-0.2-0.9 0-1.5 0.4-0.7 0.4-1 1.1-0.4 0.8-0.4 1.8 0 1 0.4 1.7 0.3 0.8 1 1.2 0.6 0.4 1.5 0.4 0.4 0 0.8-0.1 0.4-0.1 0.8-0.3 0.3-0.2 0.6-0.4v-1.8q0-0.5-0.5-0.5h-0.2v-0.1h2v0.1h-0.1q-0.6 0-0.5 0.5zm4.2-3.4l0.2-0.9 2.9 7h-0.8zm-2.5 5.5h0.5q0 0.2 0 0.3 0.1 0.2 0.2 0.3 0.1 0 0.2 0h0.1v0.1h-2v-0.1q0 0 0 0 0.1 0 0.1 0 0.2 0 0.5-0.1 0.2-0.2 0.4-0.5zm2.6-6.4h0.1l0.1 0.7-2.5 6.4h-0.6l2.5-6.1q0 0 0.1-0.1 0-0.1 0.1-0.3 0.1-0.2 0.1-0.4 0.1-0.1 0.1-0.2zm-1.6 4.4h3.1v0.3h-3.1zm3.6 2h0.8q0.1 0.3 0.4 0.5 0.2 0.1 0.5 0.1 0 0 0 0 0 0 0 0v0.1h-2.2v-0.1h0.1q0.2 0 0.3-0.1 0.2-0.2 0.1-0.5zm4.1-6.4q0.2 0 0.4 0 0.2 0 0.3 0.1 0.2 0 0.4 0 0.1 0.1 0.2 0.1v1.1h-0.1q0-0.5-0.3-0.7-0.4-0.3-0.8-0.3-0.6 0-0.9 0.3-0.4 0.4-0.4 0.8 0 0.2 0.1 0.5 0.1 0.2 0.3 0.5l2 1.8q0.3 0.3 0.4 0.6 0.1 0.3 0.1 0.6 0 0.8-0.5 1.3-0.5 0.6-1.4 0.6-0.2 0-0.5-0.1-0.4 0-0.7-0.2-0.3-0.1-0.5-0.3 0-0.1 0-0.4 0-0.2 0-0.5 0.1-0.3 0.2-0.5 0 0.5 0.2 0.9 0.2 0.4 0.5 0.6 0.3 0.2 0.8 0.2 0.5-0.1 0.9-0.4 0.4-0.4 0.4-1 0-0.3-0.1-0.5-0.1-0.2-0.3-0.4l-1.9-1.8q-0.3-0.3-0.4-0.6-0.1-0.3-0.1-0.6 0-0.4 0.2-0.8 0.2-0.4 0.6-0.7 0.4-0.2 0.9-0.2zm0.5 0.1h0.8v0.2h-0.8zm4.5 0.1h0.7v6.9h-0.7zm-2.5 0h5.8v0.3h-5.8zm5.1 0.3h0.7v0.8h-0.1v-0.2q0-0.3-0.2-0.4-0.2-0.2-0.4-0.2zm0.7-0.5v0.3l-1.3-0.1q0.3 0 0.5 0 0.3 0 0.5-0.1 0.2 0 0.3-0.1zm-3.3 6.5h0.1v0.7h-0.8v-0.1q0 0 0 0 0.1 0 0.1 0 0.3 0 0.4-0.1 0.2-0.2 0.2-0.5zm0.7 0.7v-0.7q0 0.3 0.2 0.5 0.2 0.1 0.4 0.1 0 0 0.1 0 0.1 0 0.1 0v0.1zm-3.2-6.7h0.7q-0.3 0-0.5 0.2-0.1 0.2-0.1 0.4v0.2h-0.1zm0-0.2v-0.2q0.1 0 0.3 0 0.2 0.1 0.4 0.1 0.3 0 0.5 0zm7.9-0.1h1.4q0.4 0 0.8 0.2 0.4 0.1 0.6 0.3 0.3 0.3 0.4 0.6 0.1 0.4 0.1 0.8 0 0.5-0.2 0.9-0.2 0.5-0.6 0.8-0.4 0.2-0.9 0.2 0.2 0.1 0.4 0.3 0.2 0.2 0.3 0.4 0 0 0.2 0.2 0.1 0.2 0.3 0.5 0.2 0.3 0.4 0.5 0.2 0.3 0.4 0.5 0.2 0.2 0.4 0.4 0.2 0.1 0.4 0.2 0.3 0.1 0.6 0.1v0.1h-0.6q-0.5 0-0.8-0.1-0.3-0.1-0.6-0.3-0.2-0.3-0.3-0.4-0.1-0.1-0.2-0.3-0.1-0.2-0.3-0.4-0.2-0.3-0.4-0.6-0.2-0.2-0.3-0.4-0.1-0.2-0.2-0.2-0.1-0.3-0.4-0.5-0.2-0.2-0.5-0.2v-0.1q0 0 0.2 0 0.1 0 0.4 0 0.2 0 0.5-0.1 0.3 0 0.6-0.3 0.3-0.2 0.4-0.6 0-0.1 0.1-0.3 0-0.2 0-0.3 0-0.7-0.4-1.1-0.3-0.4-0.9-0.4-0.2-0.1-0.5-0.1-0.3 0-0.5 0-0.2 0-0.2 0 0 0-0.1 0 0-0.1 0-0.2 0-0.1 0-0.1zm-0.6 0h0.7v7h-0.7zm0 6.3h0.1v0.7h-0.8v-0.1q0 0 0 0 0.1 0 0.1 0 0.3 0 0.4-0.1 0.2-0.2 0.2-0.5zm0.1-6.3v0.8h-0.1q0-0.3-0.2-0.5-0.1-0.2-0.4-0.2 0 0-0.1 0 0 0 0 0v-0.1zm0.6 7v-0.7q0 0.3 0.2 0.5 0.2 0.1 0.4 0.1 0 0 0.1 0 0.1 0 0.1 0v0.1zm8.6-7.1q1 0 1.9 0.5 0.8 0.4 1.2 1.2 0.5 0.8 0.5 1.9 0 1.1-0.5 1.9-0.4 0.9-1.2 1.3-0.9 0.5-1.9 0.5-1.1 0-1.9-0.5-0.8-0.4-1.3-1.3-0.4-0.8-0.4-1.9 0-1.1 0.4-1.9 0.5-0.8 1.3-1.2 0.8-0.5 1.9-0.5zm0 7q0.8 0 1.5-0.4 0.6-0.5 0.9-1.2 0.4-0.8 0.4-1.8 0-1-0.4-1.7-0.3-0.8-0.9-1.2-0.7-0.4-1.5-0.4-0.9 0-1.5 0.4-0.6 0.4-1 1.2-0.3 0.7-0.3 1.7 0 1 0.3 1.8 0.4 0.7 1 1.2 0.6 0.4 1.5 0.4zm5.2-5.9l-0.1-1.1 5.8 6.2 0.1 1.1zm-0.1 5.3h0.1v0.7h-0.9v-0.1q0 0 0.1 0 0.1 0 0.1 0 0.3 0 0.4-0.2 0.2-0.1 0.2-0.4zm0.5 0q0 0.3 0.2 0.4 0.1 0.2 0.4 0.2 0 0 0.1 0 0.1 0 0.1 0v0.1h-0.8zm-0.6-6.4h0.1l0.5 0.5v6.6h-0.5v-5.9q0-0.5 0-0.8-0.1-0.4-0.1-0.4zm5.6 0.1h0.4v5.9q0 0.3 0.1 0.6 0 0.3 0 0.5 0 0.2 0 0.2h-0.1l-0.4-0.6zm0.4 0h0.8v0.1q0 0-0.1 0 0 0 0 0-0.3 0-0.5 0.2-0.2 0.2-0.2 0.5zm-1.2 0.1v-0.1h0.8v0.7q0-0.3-0.2-0.5-0.2-0.1-0.4-0.1 0 0-0.1 0-0.1 0-0.1 0zm6.6-0.3q1 0 1.9 0.5 0.8 0.4 1.2 1.2 0.5 0.9 0.5 2 0 1-0.5 1.9-0.4 0.8-1.2 1.2-0.9 0.5-1.9 0.5-1.1 0-1.9-0.5-0.8-0.4-1.3-1.2-0.4-0.9-0.4-1.9 0-1.1 0.4-2 0.5-0.8 1.3-1.2 0.8-0.5 1.9-0.5zm0 7q0.8 0 1.5-0.4 0.6-0.4 0.9-1.2 0.4-0.7 0.4-1.7 0-1-0.4-1.8-0.3-0.7-0.9-1.2-0.7-0.4-1.5-0.4-0.9 0-1.5 0.4-0.6 0.5-1 1.2-0.3 0.8-0.3 1.8 0 1 0.3 1.7 0.4 0.8 1 1.2 0.6 0.4 1.5 0.4zm8.3-0.3l3-6.7 0.1 0.7-2.5 5.6q0 0-0.1 0.1-0.1 0.2-0.1 0.5-0.1 0.2-0.1 0.4h-0.1zm-3.4-0.2h0.2v0.7h-1.1v-0.1q0 0 0.1 0 0.1 0 0.1 0 0.2 0 0.4-0.2 0.3-0.1 0.3-0.4zm0.4 0.1h0.1q0 0 0 0 0 0 0 0.1 0 0.1 0.1 0.3 0.1 0.1 0.3 0.1h0.1v0.1h-0.6zm-0.5 0.6l0.8-7.2h0.1l0.2 0.6-0.5 6.6zm0.7-6.1l0.2-1.1 2.9 6.2-0.3 1.1zm5.7-1.1h0.1l0.9 7.1h-0.8l-0.5-6zm0.6 7.1v-0.7h0.2q0.1 0.3 0.3 0.4 0.2 0.2 0.5 0.2 0 0 0 0 0.1 0 0.1 0v0.1zm-0.5-0.6h0.1v0.6h-0.7v-0.1h0.2q0.2 0 0.3-0.1 0.1-0.2 0.1-0.3 0 0 0-0.1 0 0 0 0zm3.1-6.4h0.7v7h-0.7zm0 6.3h0.1v0.7h-0.8v-0.1q0 0 0 0 0.1 0 0.1 0 0.3 0 0.4-0.2 0.2-0.2 0.2-0.4zm0.1-6.3v0.7h-0.1q0-0.2-0.2-0.4-0.1-0.2-0.4-0.2 0 0-0.1 0 0 0 0 0v-0.1zm0.6 7v-0.7q0 0.2 0.2 0.4 0.2 0.2 0.4 0.2 0 0 0.1 0 0 0 0.1 0v0.1zm0-6.3v-0.7h0.8v0.1q-0.1 0-0.1 0-0.1 0-0.1 0-0.2 0-0.4 0.2-0.2 0.2-0.2 0.4zm2.7-0.7h0.7v7h-0.7zm0.6 6.7h2.8v0.3h-2.8zm0-3.3h2.3v0.3h-2.3zm0-3.4h2.8v0.3h-2.8zm3.3 5.4h0.1l-0.6 1.6h-1.7l0.4-0.3q0.5 0 0.9-0.1 0.3-0.2 0.5-0.5 0.2-0.3 0.4-0.7zm-1.5-1.7h0.5v0.7h-0.1v-0.2q0-0.2-0.1-0.3-0.1-0.2-0.3-0.2zm0.4-0.9h0.1v0.7h-0.5v-0.1q0.2 0 0.3-0.1 0.1-0.2 0.1-0.4zm-0.1-2.4h0.7v0.8h-0.1v-0.2q0-0.3-0.2-0.4-0.2-0.2-0.4-0.2zm0.7-0.5v0.3l-1.3-0.1q0.3 0 0.5 0 0.3-0.1 0.5-0.1 0.2 0 0.3-0.1zm-3.4 6.5v0.7h-0.8v-0.1q0 0 0.1 0 0.1 0 0.1 0 0.2 0 0.4-0.2 0.2-0.2 0.2-0.4zm0-6.3v0.7q0-0.2-0.2-0.4-0.2-0.2-0.4-0.2 0 0-0.1 0 0 0 0 0l-0.1-0.1zm8.3 0h0.6v7q0 0.4-0.1 0.8-0.1 0.4-0.4 0.6-0.2 0.3-0.6 0.5-0.3 0.1-0.7 0.1v-0.1q0.3-0.1 0.6-0.4 0.3-0.3 0.4-0.7 0.2-0.4 0.2-0.8zm0 0v0.7q0-0.3-0.2-0.4-0.2-0.2-0.5-0.2 0 0 0 0-0.1 0-0.1 0v-0.1zm0.6 0.7v-0.7h0.8v0.1q0 0-0.1 0 0 0 0 0-0.3 0-0.5 0.2-0.2 0.1-0.2 0.4zm4.6 0.1l0.2-1 3 7.1h-0.8zm-2.6 5.5h0.6q-0.1 0.2 0 0.3 0 0.1 0.1 0.2 0.2 0.1 0.3 0.1h0.1v0.1h-2v-0.1q0 0 0 0 0.1 0 0.1 0 0.2 0 0.4-0.1 0.3-0.2 0.4-0.5zm2.7-6.4h0.1v0.7l-2.5 6.4h-0.6l2.6-6.1q0 0 0-0.1 0.1-0.2 0.2-0.3 0.1-0.2 0.1-0.4 0.1-0.2 0.1-0.2zm-1.7 4.4h3.2v0.3h-3.2zm3.6 2h0.8q0.2 0.3 0.4 0.5 0.3 0.1 0.5 0.1 0 0 0.1 0 0 0 0 0v0.1h-2.3v-0.1h0.1q0.2 0 0.4-0.2 0.1-0.1 0-0.4zm3.6-6.3h1.3q0.6 0 1.1 0.2 0.5 0.3 0.7 0.7 0.3 0.4 0.3 1 0 0.5-0.2 0.9-0.2 0.3-0.5 0.6-0.3 0.2-0.7 0.3-0.4 0.2-0.8 0.1-0.4 0-0.8-0.2v-0.1q0 0 0.2 0 0.2 0.1 0.4 0 0.3 0 0.6-0.1 0.3-0.1 0.6-0.3 0.2-0.2 0.3-0.7 0.1-0.1 0.1-0.2 0-0.2 0-0.4 0-0.7-0.4-1.1-0.3-0.4-0.9-0.4h-1.2q0 0-0.1-0.1 0-0.1 0-0.1 0-0.1 0-0.1zm-0.5 0h0.6v7h-0.6zm0 6.3v0.7h-0.8v-0.1q0 0 0 0 0.1 0 0.1 0 0.3 0 0.5-0.2 0.1-0.2 0.2-0.4zm0-6.3v0.7q0-0.2-0.2-0.4-0.2-0.2-0.5-0.2 0 0 0 0-0.1 0-0.1 0v-0.1zm0.6 7v-0.7q0 0.2 0.2 0.4 0.2 0.2 0.4 0.2 0 0 0.1 0 0.1 0 0.1 0v0.1zm8.1-7.1q1.1 0 1.9 0.4 0.8 0.5 1.2 1.3 0.5 0.8 0.5 1.9 0 1.1-0.5 1.9-0.4 0.8-1.2 1.3-0.8 0.4-1.9 0.4-1.1 0-1.9-0.4-0.8-0.5-1.2-1.3-0.5-0.8-0.5-1.9 0-1.1 0.5-1.9 0.4-0.8 1.2-1.3 0.8-0.4 1.9-0.4zm0 6.9q0.8 0 1.5-0.4 0.6-0.4 1-1.2 0.3-0.7 0.3-1.7 0-1-0.3-1.8-0.4-0.7-1-1.1-0.7-0.4-1.5-0.4-0.8 0-1.5 0.4-0.6 0.4-1 1.1-0.3 0.8-0.3 1.8 0 1 0.3 1.7 0.4 0.8 1 1.2 0.7 0.4 1.5 0.4zm5.2-5.9l-0.1-1.1 5.9 6.2v1.1zm-0.1 5.4h0.1v0.7h-0.9v-0.1q0 0 0.1 0 0.1 0 0.1 0 0.3 0 0.5-0.2 0.1-0.2 0.1-0.4zm0.5 0q0 0.2 0.2 0.4 0.2 0.2 0.4 0.2 0 0 0.1 0 0.1 0 0.1 0v0.1h-0.8zm-0.5-6.5h0.1l0.4 0.6v6.6h-0.5v-5.9q0-0.5 0-0.9 0-0.4 0-0.4zm5.5 0.2h0.5v5.9q0 0.3 0 0.6 0 0.3 0 0.5 0 0.1 0 0.1l-0.5-0.5zm0.4 0h0.9v0.1q0 0-0.1 0-0.1 0-0.1 0-0.3 0-0.5 0.2-0.1 0.2-0.1 0.4h-0.1zm-1.2 0.1v-0.1h0.8v0.7q0-0.2-0.2-0.4-0.2-0.2-0.4-0.2 0 0-0.1 0-0.1 0-0.1 0zm5.7 0.7l0.2-0.9 3 7.1h-0.8zm-2.6 5.4h0.6q-0.1 0.2 0 0.4 0 0.1 0.1 0.2 0.2 0 0.3 0h0.1v0.1h-2v-0.1q0 0 0 0 0.1 0 0.1 0 0.2 0 0.4-0.1 0.3-0.1 0.4-0.5zm2.7-6.4h0.1v0.7l-2.5 6.4h-0.6l2.6-6.1q0 0 0-0.1 0.1-0.1 0.2-0.3 0.1-0.2 0.1-0.3 0.1-0.2 0.1-0.3zm-1.7 4.4h3.2v0.3h-3.2zm3.6 2h0.8q0.2 0.4 0.4 0.5 0.3 0.1 0.5 0.1 0 0 0.1 0 0 0 0 0v0.1h-2.3v-0.1h0.1q0.2 0 0.4-0.1 0.1-0.2 0-0.5zm3.1-6.3h0.6v7h-0.6zm0 6.3v0.7h-0.8v-0.1q0 0 0 0 0.1 0 0.1 0 0.3 0 0.5-0.1 0.1-0.2 0.2-0.5zm0-6.3v0.8q-0.1-0.3-0.2-0.5-0.2-0.2-0.5-0.2 0 0-0.1 0 0 0 0 0v-0.1zm0.6 7v-0.7q0 0.3 0.2 0.5 0.2 0.1 0.4 0.1 0 0 0.1 0 0.1 0 0.1 0v0.1zm0-6.2v-0.8h0.8v0.1q0 0-0.1 0-0.1 0-0.1 0-0.2 0-0.4 0.2-0.2 0.2-0.2 0.5zm3.9-0.9q0.1 0 0.3 0 0.2 0 0.4 0.1 0.2 0 0.3 0.1 0.1 0 0.2 0v1.1h-0.1q0-0.4-0.3-0.7-0.3-0.3-0.8-0.3-0.5 0-0.9 0.4-0.3 0.3-0.3 0.8 0 0.1 0.1 0.4 0 0.3 0.3 0.5l1.9 1.8q0.3 0.3 0.4 0.6 0.1 0.3 0.1 0.6 0 0.8-0.5 1.4-0.5 0.5-1.3 0.5-0.3 0-0.6-0.1-0.3 0-0.6-0.1-0.3-0.2-0.5-0.4-0.1-0.1-0.1-0.4 0-0.2 0.1-0.5 0-0.2 0.1-0.5h0.1q-0.1 0.6 0.1 0.9 0.2 0.4 0.5 0.6 0.4 0.2 0.8 0.2 0.6 0 1-0.4 0.4-0.4 0.4-1 0-0.2-0.1-0.5-0.1-0.2-0.3-0.4l-1.9-1.8q-0.3-0.2-0.5-0.6-0.1-0.3-0.1-0.6 0-0.4 0.2-0.8 0.2-0.4 0.6-0.6 0.4-0.3 1-0.3zm0.5 0.1h0.7v0.2h-0.7zm3.1 0.1h0.6v7h-0.6zm0.6 6.6h2.7v0.4h-2.7zm0-3.3h2.3v0.3h-2.3zm0-3.4h2.7v0.3h-2.7zm3.2 5.4h0.1l-0.5 1.6h-1.7l0.4-0.3q0.5 0 0.8-0.2 0.4-0.2 0.6-0.5 0.2-0.3 0.3-0.6zm-1.5-1.7h0.6v0.6h-0.1v-0.1q0-0.2-0.1-0.4-0.2-0.1-0.4-0.1zm0.5-0.9h0.1v0.6h-0.6q0.2 0 0.4-0.2 0.1-0.1 0.1-0.3zm-0.2-2.5h0.7v0.8h-0.1v-0.2q0-0.2-0.1-0.4-0.2-0.1-0.5-0.2zm0.7-0.4v0.3l-1.2-0.1q0.2 0 0.5-0.1 0.2 0 0.4 0 0.2-0.1 0.3-0.1zm-3.3 6.4v0.8h-0.8v-0.1q0 0 0.1 0 0 0 0 0 0.3 0 0.5-0.2 0.2-0.2 0.2-0.5zm0-6.2v0.7q0-0.3-0.2-0.5-0.2-0.1-0.5-0.1 0 0 0 0-0.1 0-0.1 0v-0.1zm10-0.2q0.4 0 0.7 0.1 0.3 0.1 0.6 0.3 0.2 0.1 0.4 0.3l-0.2 1.2h-0.1q0-0.5-0.1-0.9-0.2-0.3-0.5-0.5-0.3-0.2-0.8-0.2-0.5 0-0.9 0.4-0.4 0.4-0.4 1 0 0.7 0.4 1.2 0.4 0.5 1.2 1.2 0.2 0.2 0.5 0.5 0.2 0.2 0.6 0.5 0.3 0.3 0.8 0.7 0.3 0.2 0.6 0.5 0.4 0.3 0.7 0.5 0.4 0.2 0.7 0.3v0.1q-0.1 0-0.5-0.1-0.4 0-0.8-0.1-0.4-0.1-0.8-0.5-0.4-0.3-0.7-0.5-0.4-0.3-0.6-0.5-0.3-0.3-0.5-0.5-0.2-0.2-0.5-0.4-0.5-0.5-1-0.9-0.4-0.5-0.6-0.9-0.2-0.5-0.2-1.1 0-0.3 0.2-0.7 0.1-0.3 0.4-0.5 0.2-0.2 0.6-0.4 0.4-0.1 0.8-0.1zm2.8 3.9q0.1 0.5 0 1 0 0.5-0.2 0.9-0.2 0.5-0.5 0.8-0.4 0.3-0.8 0.5-0.5 0.2-1.1 0.2-0.5 0-1-0.1-0.5-0.1-0.9-0.3-0.3-0.2-0.6-0.5-0.3-0.3-0.4-0.7-0.1-0.3-0.1-0.8 0-0.3 0-0.5 0.1-0.3 0.2-0.5 0.2-0.2 0.3-0.3 0.2-0.2 0.4-0.4 0.2-0.1 0.4-0.2l0.2 0.2q-0.2 0.2-0.4 0.4-0.1 0.2-0.2 0.4-0.1 0.2-0.1 0.4-0.1 0.3-0.1 0.5 0 0.5 0.2 0.8 0.1 0.4 0.4 0.7 0.3 0.3 0.7 0.4 0.5 0.2 1 0.2 0.6 0 0.9-0.2 0.4-0.3 0.7-0.6 0.3-0.3 0.4-0.7 0.1-0.4 0.1-0.9 0-0.4-0.2-0.7-0.1-0.2-0.2-0.4-0.2-0.1-0.4-0.1h-0.2v-0.1h2v0.1h-0.1q-0.3 0-0.4 0.1-0.1 0.2 0 0.4zm5.6-3.9q0.1 0 0.3 0 0.2 0.1 0.4 0.1 0.1 0 0.3 0.1 0.1 0 0.2 0v1.1h-0.1q0-0.4-0.3-0.7-0.3-0.3-0.8-0.3-0.6 0-0.9 0.4-0.3 0.3-0.3 0.8 0 0.2 0 0.4 0.1 0.3 0.4 0.5l1.9 1.8q0.3 0.3 0.4 0.6 0.1 0.3 0.1 0.6 0 0.9-0.5 1.4-0.5 0.5-1.3 0.5-0.3 0-0.6-0.1-0.3 0-0.6-0.1-0.3-0.2-0.5-0.4-0.1-0.1-0.1-0.4 0-0.2 0.1-0.5 0-0.2 0.1-0.4h0.1q-0.1 0.5 0.1 0.8 0.2 0.4 0.5 0.6 0.4 0.2 0.8 0.2 0.6 0 0.9-0.4 0.4-0.3 0.4-0.9 0-0.3-0.1-0.6-0.1-0.2-0.2-0.4l-2-1.8q-0.3-0.2-0.4-0.6-0.1-0.3-0.1-0.6 0-0.4 0.2-0.8 0.2-0.4 0.6-0.6 0.4-0.3 1-0.3zm0.4 0.1h0.8v0.2h-0.8zm3 0.1h0.6v4.4q0 0.7 0.3 1.2 0.3 0.6 0.7 0.9 0.5 0.3 1.2 0.3 0.6 0 1.1-0.3 0.5-0.3 0.8-0.8 0.3-0.5 0.3-1.2v-4.5h0.5v4.5q0 0.8-0.4 1.4-0.3 0.5-0.9 0.9-0.6 0.3-1.4 0.3-0.9 0-1.5-0.3-0.6-0.3-1-0.9-0.3-0.6-0.3-1.4zm-0.7 0h0.7v0.6q0-0.2-0.2-0.4-0.1-0.1-0.3-0.1 0 0-0.1 0-0.1 0-0.1 0zm1.3 0h0.7v0.1q0 0-0.1 0 0 0 0 0-0.3 0-0.4 0.1-0.2 0.2-0.2 0.4zm3.7 0h0.7v0.6q0-0.2-0.2-0.4-0.1-0.1-0.3-0.1 0 0-0.1 0-0.1 0-0.1 0zm1.1 0h0.7v0.1q0 0 0 0-0.1 0-0.1 0-0.2 0-0.4 0.2-0.1 0.1-0.1 0.3h-0.1zm3.8-0.1q0.1 0 0.3 0 0.2 0 0.4 0 0.1 0.1 0.3 0.1 0.1 0 0.2 0.1v1.1h-0.1q0-0.5-0.3-0.8-0.3-0.2-0.8-0.2-0.6 0-0.9 0.3-0.3 0.4-0.3 0.8 0 0.2 0 0.5 0.1 0.2 0.4 0.4l1.9 1.9q0.3 0.2 0.4 0.6 0.1 0.3 0.1 0.6 0 0.8-0.5 1.3-0.5 0.6-1.3 0.6-0.3 0-0.6-0.1-0.3-0.1-0.6-0.2-0.3-0.1-0.5-0.3-0.1-0.2-0.1-0.4 0-0.2 0.1-0.5 0-0.3 0.1-0.5h0.1q-0.1 0.5 0.1 0.9 0.2 0.4 0.5 0.6 0.4 0.2 0.8 0.2 0.6-0.1 0.9-0.4 0.4-0.4 0.4-1 0-0.3-0.1-0.5-0.1-0.2-0.2-0.4l-2-1.8q-0.3-0.3-0.4-0.6-0.1-0.3-0.1-0.6 0-0.5 0.2-0.8 0.2-0.4 0.6-0.7 0.4-0.2 1-0.2zm0.4 0.1h0.8v0.2h-0.8zm7.9 0h0.7v7h-0.7zm-4.7 0h0.6v7h-0.6zm0.5 3.4h4.3v0.3h-4.3zm-0.5 2.9v0.7h-0.8v-0.1q0 0 0.1 0 0 0 0 0 0.3 0 0.5-0.2 0.2-0.2 0.2-0.4zm0-6.3v0.7q0-0.2-0.2-0.4-0.2-0.2-0.5-0.2 0 0 0 0-0.1 0-0.1 0v-0.1zm0.6 7v-0.7q0 0.2 0.2 0.4 0.2 0.2 0.5 0.2 0 0 0 0 0.1 0 0.1 0v0.1zm0-6.3v-0.7h0.8v0.1q0 0-0.1 0 0 0 0 0-0.3 0-0.5 0.2-0.2 0.2-0.2 0.4zm4.1 5.6v0.7h-0.8v-0.1q0 0 0.1 0 0.1 0 0.1 0 0.2 0 0.4-0.2 0.2-0.2 0.2-0.4zm0-6.3v0.7q0-0.2-0.2-0.4-0.2-0.2-0.4-0.2 0 0-0.1 0-0.1 0-0.1 0v-0.1zm0.6 7v-0.7h0.1q0 0.2 0.1 0.4 0.2 0.2 0.5 0.2 0 0 0.1 0 0 0 0 0v0.1zm0.1-6.3h-0.1v-0.7h0.8v0.1q0 0 0 0-0.1 0-0.1 0-0.3 0-0.5 0.2-0.1 0.2-0.1 0.4zm2.7-0.7h0.6v7h-0.6zm0 6.3v0.7h-0.8v-0.1q0 0 0.1 0 0.1 0 0.1 0 0.2 0 0.4-0.2 0.2-0.2 0.2-0.4zm0-6.3v0.7q0-0.2-0.2-0.4-0.2-0.2-0.4-0.2 0 0-0.1 0-0.1 0-0.1 0v-0.1zm0.6 7v-0.7q0.1 0.2 0.2 0.4 0.2 0.2 0.5 0.2 0 0 0 0 0.1 0 0.1 0v0.1zm0-6.3v-0.7h0.8v0.1q0 0-0.1 0 0 0 0 0-0.3 0-0.5 0.2-0.1 0.2-0.2 0.4z"/>
	</g>
</svg>